<svg id="Layer_1" data-name="Layer 1" xmlns="http://www.w3.org/2000/svg" viewBox="0 0 210.6 210.6">
  <defs>
    <style>
      .cls-1 {
        fill: #fff;
      }
    </style>
  </defs>
  <g id="Layer_1-2" data-name="Layer 1">
    <circle class="cls-1" cx="105.3" cy="105.3" r="105.3"/>
    <path d="M70.5,160.7c-15.2-2.8-35.1-4.5-35.1-4.5V52c-7.7-.8-13.1-1.1-13.1-1.1V156.6S46,158.3,64,161c11.5,1.7,28.8,5.7,37.1,7.6v-.3C93.8,166.3,79.8,162.4,70.5,160.7Z"/>
    <path d="M175.3,52V156.1s-19.9,1.8-35.1,4.5c-9.3,1.7-23.3,5.6-30.5,7.7v.3c8.2-2,25.6-5.9,37.1-7.6,18-2.7,41.7-4.4,41.7-4.4V50.9C188.4,50.9,183,51.3,175.3,52Z"/>
    <path d="M75.9,47.1A314.45,314.45,0,0,0,40.8,42V151.5s19.9,1.8,35.1,4.5c8,1.5,19.4,4.6,27.1,6.7l-.5-109.4C96.1,51.7,86.7,49.4,75.9,47.1Z"/>
    <path d="M134.8,156c15.2-2.8,35.1-4.5,35.1-4.5V42a314.45,314.45,0,0,0-35.1,5.1c-10.8,2.4-20.2,4.7-26.5,6.3l-.5,109.4C115.3,160.6,126.7,157.5,134.8,156Z"/>
  </g>
</svg>
