<svg id="Layer_1" data-name="Layer 1" xmlns="http://www.w3.org/2000/svg" viewBox="0 0 432 438.1">
  <defs>
    <style>
      .cls-1 {
        fill: #fff;
      }
    </style>
  </defs>
  <g>
    <path class="cls-1" d="M388.4,372.1a96.88,96.88,0,0,1,10.3,12.7c7.5,10.8,21.1,30.8,23,36.6a2.79,2.79,0,0,1-3.4,3.4c-5.8-1.8-25.9-15.5-36.6-23A114.27,114.27,0,0,1,369,391.5L109.1,134.1l22-22Z"/>
    <path class="cls-1" d="M124.1,105.2,119,102s22.1-15.6,38.6-13.8l-3.6-14s-27.5,9.5-43.5,25.5L96.6,113.6c-16,16-25.5,43.5-25.5,43.5l14,3.6C83.3,144.2,99,122.1,99,122.1l3.2,5.1Z"/>
    <polygon class="cls-1" points="103.6 92.3 45 37.7 34.7 48 89.3 106.6 103.6 92.3"/>
    <path class="cls-1" d="M39.8,13.9c4.9,4.9,2.3,15.3-5.7,23.3S15.7,47.8,10.8,42.9c0,0,4.3-10.2,11.6-17.4S39.8,13.9,39.8,13.9Z"/>
    <circle class="cls-1" cx="14.6" cy="17.7" r="4.4"/>
    <path class="cls-1" d="M233.8,352c-22.5,15.6-49.7,38.3-49.7,38.3L53.6,259.9c-10.7,8.7-17.9,15-17.9,15L168.2,407.4S200,379.9,226,360.6c16.5-12.2,43.2-29,56-36.9l-.3-.3C270.1,329.9,247.6,342.5,233.8,352Z"/>
    <path class="cls-1" d="M256.8,56.7,387.3,187.2s-22.8,27.2-38.3,49.7c-9.6,13.8-22.2,36.2-28.5,47.9l.3.3c7.9-12.8,24.6-39.5,36.9-56,19.3-26,46.8-57.8,46.8-57.8L271.9,38.8S265.6,46,256.8,56.7Z"/>
    <path class="cls-1" d="M139.3,177.5c-10,5.9-24.6,14.8-41.1,25.4-24.3,15.6-50.4,37.6-50.4,37.6L185.1,377.8s27.2-22.8,49.7-38.3c11.9-8.2,30.1-18.7,42.3-25.5ZM63.2,241.9l7.2-7.8a101.65,101.65,0,0,0,10.5,8.4l-6.1,8.7A100.54,100.54,0,0,1,63.2,241.9Zm24.5,16.9,4.7-9.6a72.17,72.17,0,0,0,12.4,4.8l-3,10.2A83.49,83.49,0,0,1,87.7,258.8Zm44.5,7.9a51.76,51.76,0,0,1-15.7.6l1.2-10.6a40.28,40.28,0,0,0,12.5-.5Zm27.7-13.1a75.37,75.37,0,0,1-12.9,8.2l-4.7-9.5a63.27,63.27,0,0,0,11-7Zm11-10.2-7.8-7.2a99.7,99.7,0,0,0,8.5-10.5l8.6,6.2A119.51,119.51,0,0,1,170.9,243.4Z"/>
    <path class="cls-1" d="M199.8,101.3c-10.5,16.4-19.4,31.1-25.4,41.1L310.9,280.2c6.8-12.3,17.3-30.5,25.5-42.3,15.6-22.5,38.3-49.7,38.3-49.7L237.5,50.8S215.4,76.9,199.8,101.3Zm78.9,14.3a58,58,0,0,1,8.8,4l-5.3,9.2a36,36,0,0,0-6.9-3.2c-1.7-.6-3.3-1.1-4.9-1.5l2.8-10.3C274.9,114.3,276.8,114.9,278.7,115.6Zm-36.5-2a50.51,50.51,0,0,1,15.7-2.1l-.3,10.6a38.12,38.12,0,0,0-12.3,1.6ZM228,120.8l6.3,8.5a51.44,51.44,0,0,0-9.1,9l-8.3-6.6A63.24,63.24,0,0,1,228,120.8Zm-25.8,36.7a137.72,137.72,0,0,1,6.4-13.3l9.3,5.2a129.26,129.26,0,0,0-5.9,12.3Zm128,26.5L312,197.6l13.7,18.2-8.4,6.3L303.6,204l-18.2,13.7-6.3-8.4,18.2-13.7-13.7-18.2,8.4-6.3,13.7,18.2,18.2-13.7Zm-15.8-11.4-10.6-.8a49.3,49.3,0,0,0-.7-12.7l10.4-2A57.75,57.75,0,0,1,314.4,172.6Zm-5.8-30.2-9.5,4.7a44.48,44.48,0,0,0-7.1-10.4l7.8-7.2A58.74,58.74,0,0,1,308.6,142.4Z"/>
  </g>
</svg>
