<svg id="Layer_1" data-name="Layer 1" xmlns="http://www.w3.org/2000/svg" viewBox="0 0 210.6 210.6">
  <defs>
    <style>
      .cls-1 {
        fill: #fff;
      }
    </style>
  </defs>
  <g id="Layer_1-2" data-name="Layer 1">
    <circle class="cls-1" cx="105.3" cy="105.3" r="105.3"/>
    <path d="M103,51.4c-7.5-2-18.5-4.8-31.1-7.7-18.7-4.3-41.2-6.5-41.2-6.5L29.2,166s23.4,2.3,41.2,5.8c9.4,1.8,22.8,5.6,31.7,8.3ZM37.1,45.2l7-.2a65.45,65.45,0,0,0,.9,8.9l-7,1.2C37.6,51.9,37.2,48.6,37.1,45.2Zm3.4,19.5,6.7-2.2a57.73,57.73,0,0,0,3.4,8.1l-6.2,3.3A57.75,57.75,0,0,1,40.5,64.7ZM57.4,89.5a34.59,34.59,0,0,1-7.6-7.2L55.4,78a27.07,27.07,0,0,0,6,5.7Zm19,7a51.12,51.12,0,0,1-9.9-2.3l2.4-6.6a43,43,0,0,0,8.4,2Zm9.9.5-.2-7.1a68.41,68.41,0,0,0,8.9-.8l1.1,7A83,83,0,0,1,86.3,97Z"/>
    <path d="M138.2,44.1c-12.7,2.8-23.7,5.5-31.2,7.4l-.6,128.6c9-2.6,22.4-6.2,31.8-7.9,17.9-3.3,41.3-5.3,41.3-5.3V38.1S156.9,40,138.2,44.1Zm30.3,43.7a30.72,30.72,0,0,1,2.2,6l-6.8,1.8a23.45,23.45,0,0,0-1.8-4.8,28.5,28.5,0,0,0-1.6-3l6.1-3.5A39,39,0,0,1,168.5,87.8ZM152.3,69.7a31.33,31.33,0,0,1,8.3,6.4L155.5,81a25.16,25.16,0,0,0-6.5-5Zm-10-3.2-1,7a34.27,34.27,0,0,0-8.5-.1l-.8-7A39.27,39.27,0,0,1,142.3,66.5ZM113,71.6a84.6,84.6,0,0,1,9.2-3.2l1.9,6.8c-2.7.8-5.5,1.8-8.5,3ZM160.6,144l-14.9-2.1-2.1,14.9-6.9-1,2.1-14.9-14.9-2.1,1-6.9,14.9,2.1,2.1-14.9,6.9,1L146.7,135l14.9,2.1Zm-2.1-12.7-4.6-5.4a30.81,30.81,0,0,0,5.6-6.3l5.8,3.9A34.08,34.08,0,0,1,158.5,131.3Zm11.5-17-6.7-2.2a29.58,29.58,0,0,0,1.5-8.2l7,.3A35.2,35.2,0,0,1,170,114.3Z"/>
  </g>
</svg>
