<svg id="Layer_1" data-name="Layer 1" xmlns="http://www.w3.org/2000/svg" viewBox="0 0 210.6 210.6">
  <defs>
    <style>
      .cls-1 {
        fill: #fff;
      }
    </style>
  </defs>
  <g id="Layer_1-2" data-name="Layer 1">
    <circle class="cls-1" cx="105.3" cy="105.3" r="105.3"/>
    <path d="M71.4,161.6c-15.2-2.8-35.1-4.5-35.1-4.5V53c-7.7-.8-13.1-1.1-13.1-1.1V157.6s23.7,1.7,41.7,4.4c11.5,1.7,28.8,5.7,37.1,7.6v-.3C94.7,167.3,80.7,163.3,71.4,161.6Z"/>
    <path d="M174.4,53V157.1s-19.9,1.8-35.1,4.5c-9.3,1.7-23.3,5.6-30.5,7.7v.3c8.2-2,25.6-5.9,37.1-7.6,18-2.7,41.7-4.4,41.7-4.4V51.8C187.5,51.8,182.1,52.2,174.4,53Z"/>
    <path d="M103.3,54.3c-6.4-1.6-15.7-3.9-26.5-6.3a314.45,314.45,0,0,0-35.1-5.1V152.4s19.9,1.8,35.1,4.5c8,1.5,19.4,4.6,27.1,6.7ZM47.2,49.6l6-.3a59.39,59.39,0,0,0,.8,7.5l-5.9,1.1C47.7,55.3,47.4,52.5,47.2,49.6Zm3.1,16.6,5.7-2a42.34,42.34,0,0,0,3,6.9L53.7,74A54.12,54.12,0,0,1,50.3,66.2ZM64.9,87.1a30.92,30.92,0,0,1-6.5-6l4.7-3.7a21.55,21.55,0,0,0,5.2,4.8Zm16.3,5.8A43,43,0,0,1,72.8,91l1.9-5.7a31.63,31.63,0,0,0,7.2,1.6Zm8.4.3-.2-6a67.66,67.66,0,0,0,7.6-.8l1,5.9A63.24,63.24,0,0,1,89.6,93.2Z"/>
    <path d="M133.9,48c-10.8,2.4-20.2,4.7-26.5,6.3l-.5,109.4c7.6-2.2,19.1-5.3,27.1-6.7,15.2-2.8,35.1-4.5,35.1-4.5V42.9A311.44,311.44,0,0,0,133.9,48Zm25.7,37.2a31.3,31.3,0,0,1,1.9,5.1l-5.8,1.5a23.66,23.66,0,0,0-1.5-4c-.4-.9-.9-1.8-1.3-2.6l5.2-3ZM145.9,69.8a28.41,28.41,0,0,1,7.1,5.4l-4.4,4.1a19.66,19.66,0,0,0-5.5-4.2Zm-8.6-2.7-.9,5.9a34.23,34.23,0,0,0-7.2-.1l-.7-6A42.3,42.3,0,0,1,137.3,67.1Zm-24.9,4.3a74,74,0,0,1,7.9-2.7l1.7,5.8a62,62,0,0,0-7.2,2.5ZM152.9,133l-12.7-1.8-1.8,12.7-5.9-.8,1.8-12.7-12.7-1.8.8-5.9,12.7,1.8,1.8-12.7,5.9.8L141,125.3l12.7,1.8Zm-1.8-10.8-3.9-4.6a27.08,27.08,0,0,0,4.8-5.3l5,3.4A36.5,36.5,0,0,1,151.1,122.2Zm9.8-14.4-5.7-1.9a24.68,24.68,0,0,0,1.3-7l6,.3A31.84,31.84,0,0,1,160.9,107.8Z"/>
  </g>
</svg>
