<?xml version="1.0" encoding="utf-8"?>
<!-- Generator: Adobe Illustrator 25.4.1, SVG Export Plug-In . SVG Version: 6.00 Build 0)  -->
<svg version="1.1" id="Layer_1" xmlns="http://www.w3.org/2000/svg" xmlns:xlink="http://www.w3.org/1999/xlink" x="0px" y="0px"
	 viewBox="0 0 432 438.1" style="enable-background:new 0 0 432 438.1;" xml:space="preserve">
<style type="text/css">
	.st0{stroke:#FFFFFF;stroke-miterlimit:10;}
	.st1{fill:#FFFFFF;}
	.st2{fill:none;stroke:#000000;stroke-width:11;stroke-miterlimit:10;stroke-dasharray:16,12;}
</style>
<rect id="Backdrop" class="st0" width="432" height="438.1"/>
<g id="Logo">
	<g>
		<g>
			<path class="st1" d="M124.1,105.2L119,102c0,0,22.1-15.6,38.6-13.8l-3.6-14c0,0-27.5,9.5-43.5,25.5c-7,7-7,7-13.9,13.9
				c-16,16-25.5,43.5-25.5,43.5l14,3.6C83.3,144.2,99,122.1,99,122.1l3.2,5.1L124.1,105.2z"/>
		</g>
		<g>
			<path class="st1" d="M124.1,105.2L119,102c0,0,22.1-15.6,38.6-13.8l-3.6-14c0,0-27.5,9.5-43.5,25.5c-7,7-7,7-13.9,13.9
				c-16,16-25.5,43.5-25.5,43.5l14,3.6C83.3,144.2,99,122.1,99,122.1l3.2,5.1L124.1,105.2z"/>
		</g>
	</g>
	<g>
		<polygon class="st1" points="103.6,92.3 45,37.7 34.7,48 89.3,106.6 		"/>
	</g>
	<g>
		<path class="st1" d="M39.8,13.9c4.9,4.9,2.3,15.3-5.7,23.3s-18.4,10.6-23.3,5.7c0,0,4.3-10.2,11.6-17.4S39.8,13.9,39.8,13.9z"/>
	</g>
	<g>
		<circle class="st1" cx="14.6" cy="17.7" r="4.4"/>
	</g>
	<g>
		<path class="st1" d="M233.8,352c-22.5,15.6-49.7,38.3-49.7,38.3L53.6,259.9c-10.7,8.7-17.9,15-17.9,15l132.5,132.5
			c0,0,31.8-27.5,57.8-46.8c16.5-12.2,43.2-29,56-36.9l-0.3-0.3C270.1,329.9,247.6,342.5,233.8,352z"/>
	</g>
	<g>
		<path class="st1" d="M256.8,56.7l130.5,130.5c0,0-22.8,27.2-38.3,49.7c-9.6,13.8-22.2,36.2-28.5,47.9l0.3,0.3
			c7.9-12.8,24.6-39.5,36.9-56c19.3-26,46.8-57.8,46.8-57.8L271.9,38.8C271.9,38.8,265.6,46,256.8,56.7z"/>
	</g>
	<g>
		<g>
			<path class="st1" d="M139.3,177.5c-10,5.9-24.6,14.8-41.1,25.4c-24.3,15.6-50.4,37.6-50.4,37.6l137.3,137.3
				c0,0,27.2-22.8,49.7-38.3c11.9-8.2,30.1-18.7,42.3-25.5L139.3,177.5z"/>
		</g>
	</g>
	<g>
		<g>
			<path class="st1" d="M199.8,101.3c-10.5,16.4-19.4,31.1-25.4,41.1l136.5,137.8c6.8-12.3,17.3-30.5,25.5-42.3
				c15.6-22.5,38.3-49.7,38.3-49.7L237.5,50.8C237.5,50.8,215.4,76.9,199.8,101.3z M66.4,238.4"/>
		</g>
	</g>
</g>
<path id="Trail" class="st2" d="M199.1,171.9c8.2-31.3,40.4-60.5,65.4-57.2c29.9,4,43.6,38.7,45.2,60.4c1.2,16.6,3.9,37-30.5,54.2
	c-33,16.5-23.9,65-35.9,74.1c-26,19.7-76.4,34.1-103,7c-20.5-21-20.9-61-4.4-79.5c9.4-10.6,19-8.1,34.6-19.1
	C190.2,197.9,194.5,187.1,199.1,171.9z"/>
<path id="Blade" class="st1" d="M388.4,372.1c3.8,3.9,7.2,8.2,10.3,12.7c7.5,10.8,21.1,30.8,23,36.6c0.6,2-1.4,4-3.4,3.4
	c-5.8-1.8-25.9-15.5-36.6-23c-4.5-3.1-8.7-6.6-12.7-10.3L109.1,134.1l22-22L388.4,372.1z"/>
</svg>
