<svg id="Layer_1" data-name="Layer 1" xmlns="http://www.w3.org/2000/svg" viewBox="0 0 433 439.1">
  <!--rect id="Backdrop" x="0.5" y="0.5" width="432" height="438.1" stroke="#fff" stroke-miterlimit="10"/-->
  <g id="Logo">
    <g>
      <path d="M124.1,105.2,119,102s22.1-15.6,38.6-13.8l-3.6-14s-27.5,9.5-43.5,25.5L96.6,113.6c-16,16-25.5,43.5-25.5,43.5l14,3.6C83.3,144.2,99,122.1,99,122.1l3.2,5.1Z" transform="translate(0.5 0.5)" fill="#fff"/>
      <path d="M124.1,105.2,119,102s22.1-15.6,38.6-13.8l-3.6-14s-27.5,9.5-43.5,25.5L96.6,113.6c-16,16-25.5,43.5-25.5,43.5l14,3.6C83.3,144.2,99,122.1,99,122.1l3.2,5.1Z" transform="translate(0.5 0.5)" fill="#fff"/>
    </g>
    <polygon points="104.1 92.8 45.5 38.2 35.2 48.5 89.8 107.1 104.1 92.8" fill="#fff"/>
    <path d="M39.8,13.9c4.9,4.9,2.3,15.3-5.7,23.3S15.7,47.8,10.8,42.9c0,0,4.3-10.2,11.6-17.4S39.8,13.9,39.8,13.9Z" transform="translate(0.5 0.5)" fill="#fff"/>
    <circle cx="15.1" cy="18.2" r="4.4" fill="#fff"/>
    <path d="M233.8,352c-22.5,15.6-49.7,38.3-49.7,38.3L53.6,259.9c-10.7,8.7-17.9,15-17.9,15L168.2,407.4S200,379.9,226,360.6c16.5-12.2,43.2-29,56-36.9l-.3-.3C270.1,329.9,247.6,342.5,233.8,352Z" transform="translate(0.5 0.5)" fill="#fff"/>
    <path d="M256.8,56.7,387.3,187.2s-22.8,27.2-38.3,49.7c-9.6,13.8-22.2,36.2-28.5,47.9l.3.3c7.9-12.8,24.6-39.5,36.9-56,19.3-26,46.8-57.8,46.8-57.8L271.9,38.8S265.6,46,256.8,56.7Z" transform="translate(0.5 0.5)" fill="#fff"/>
    <path d="M139.3,177.5c-10,5.9-24.6,14.8-41.1,25.4-24.3,15.6-50.4,37.6-50.4,37.6L185.1,377.8s27.2-22.8,49.7-38.3c11.9-8.2,30.1-18.7,42.3-25.5Z" transform="translate(0.5 0.5)" fill="#fff"/>
    <path d="M199.8,101.3c-10.5,16.4-19.4,31.1-25.4,41.1L310.9,280.2c6.8-12.3,17.3-30.5,25.5-42.3,15.6-22.5,38.3-49.7,38.3-49.7L237.5,50.8S215.4,76.9,199.8,101.3ZM66.41,238.42" transform="translate(0.5 0.5)" fill="#fff"/>
  </g>
  <path d="M199.13,171.94c8.16-31.3,40.44-60.54,65.35-57.23,29.86,4,43.6,38.69,45.17,60.39,1.19,16.6,3.93,37-30.46,54.19-33,16.52-23.89,65-35.87,74.06-26,19.71-76.43,34.12-103,7-20.54-21-20.89-61-4.38-79.48,9.42-10.56,18.95-8.11,34.58-19.1C190.18,197.94,194.54,187.13,199.13,171.94Z"
    id="Trail"
    transform="translate(0.5 0.5)"
    fill="none"
    stroke="#000"
    stroke-miterlimit="10"
    stroke-width="11"
    stroke-dasharray="16 12">
      <animate attributeName="stroke-dasharray" 
        values="
          0 12  16 500;
          0 12  16 12 16 500;
          0 12  16 12 16 12 16 500;
          0 12  16 12 16 12 16 12 16 500;
          0 12  16 12 16 12 16 12 16 12 16 544;
          0 40  16 12 16 12 16 12 16 12 16 544;
          0 68  16 12 16 12 16 12 16 12 16 544;
          0 96  16 12 16 12 16 12 16 12 16 544;
          0 124 16 12 16 12 16 12 16 12 16 544;
          0 152 16 12 16 12 16 12 16 12 16 544;
          0 180 16 12 16 12 16 12 16 12 16 544;
          0 208 16 12 16 12 16 12 16 12 16 544;
          0 236 16 12 16 12 16 12 16 12 16 544;
          0 264 16 12 16 12 16 12 16 12 16 544;
          0 292 16 12 16 12 16 12 16 12 16 544;
          0 320 16 12 16 12 16 12 16 12 16 544;
          0 348 16 12 16 12 16 12 16 12 16 544;
          0 376 16 12 16 12 16 12 16 12 16 544;
          0 404 16 12 16 12 16 12 16 12 16 544;
          0 432 16 12 16 12 16 12 16 12 16 544;
          0 460 16 12 16 12 16 12 16 12 16 544;
          0 488 16 12 16 12 16 12 16 12 16 544;
          0 516 16 12 16 12 16 12 16 12 16 544
        "
        dur="2.5s" 
        calcMode="discrete"
        repeatCount="indefinite" />
  </path>
  <path id="Blade" d="M388.4,372.1a96.88,96.88,0,0,1,10.3,12.7c7.5,10.8,21.1,30.8,23,36.6a2.79,2.79,0,0,1-3.4,3.4c-5.8-1.8-25.9-15.5-36.6-23A114.27,114.27,0,0,1,369,391.5L109.1,134.1l22-22Z" transform="translate(0.5 0.5)" fill="#fff"/>
</svg>
