<?xml version="1.0" encoding="utf-8"?>
<!-- Generator: Adobe Illustrator 25.2.1, SVG Export Plug-In . SVG Version: 6.00 Build 0)  -->
<svg version="1.1" id="Layer_1" xmlns="http://www.w3.org/2000/svg" xmlns:xlink="http://www.w3.org/1999/xlink" x="0px" y="0px"
	 viewBox="0 0 767 121" style="enable-background:new 0 0 767 121;" xml:space="preserve">
<style type="text/css">
	.st0{fill:#FFFFFF;}
</style>
<path class="st0" d="M224.2,53.4c-0.1-1-0.3-1.9-0.4-2.9c-0.4-2.3-1.2-4.5-2.2-6.6c-1.1-2-2.4-3.8-3.9-5.3c-1.6-1.5-3.4-2.7-5.5-3.5
	c-2.1-0.9-4.4-1.3-6.9-1.3c-1.4,0-17.8,0.2-18,0.2c-0.2,0-0.4,0.1-0.5,0.3c-0.1,0.2-0.1,0.4,0.1,0.6l0.4,0.4
	c0.8,0.6,1.3,1.5,1.6,2.6c0.1,0.7,0.2,1.5,0.2,2.2c0,0.6-0.2,29.8-0.2,29.8c0,1-0.1,2-0.3,2.9c-0.2,0.9-0.6,1.7-1.4,2.5
	c-0.2,0.1-0.3,0.3-0.4,0.6c-0.2,0.4-0.1,0.6,0.3,0.7c0.4,0.1,0.7,0.1,1.1,0.2c0.4,0,0.8,0.1,1.1,0.1c2.6,0,13.1-0.2,15.7-0.3
	c2.7,0,5.2-0.6,7.5-1.8c2.3-1.1,4.3-2.6,6-4.5c1.7-1.9,3.1-4,4-6.4c1-2.4,1.6-4.9,1.7-7.6C224.3,55.3,224.3,54.3,224.2,53.4z
	 M214.9,57.6c-0.2,1.4-0.5,2.9-0.8,4.3c-0.4,1.5-0.9,2.8-1.5,4.1c-0.6,1.3-1.5,2.5-2.5,3.6c-1,1.1-2.2,2-3.6,2.7
	c-1.5,0.6-2.9,1.1-4.4,1.2c-0.2,0-0.6,0.1-1,0.1c-0.8-0.1-1.2-0.5-1.4-1.2c0-0.3,0.4-32.8,0.4-33.1c0-0.3,0.1-0.5,0.1-0.7
	c0.1-0.6,0.5-1,1.1-1c0.2,0,1.1-0.1,1.3-0.1c2,0,3.7,0.4,5.1,1.2c1.5,0.8,2.7,1.8,3.7,3.1c1,1.3,1.8,2.8,2.4,4.5
	c0.6,1.7,1,3.4,1.1,5.2c0.1,1.1,0.2,2.1,0.2,3.1C215.2,55.6,215.1,56.6,214.9,57.6z"/>
<path class="st0" d="M235.5,76.9c-0.2,0-0.5-0.1-0.8-0.3c-0.4-0.3-0.4-0.6-0.1-0.9c0.1-0.1,0.2-0.2,0.3-0.2c0.1,0,0.2-0.1,0.3-0.2
	c0.4-0.2,0.7-0.5,0.9-0.7c0.5-0.5,0.7-1.1,0.5-1.9c-0.1-0.2-12.4-35.2-12.8-35.8c-0.4-0.6-1-1.1-1.6-1.6c-0.3-0.2-0.5-0.3-0.6-0.5
	c-0.2-0.2-0.3-0.5-0.3-0.7c0-0.3,0.2-0.4,0.5-0.6c0.2,0,0.3-0.1,0.5-0.1c0.1,0,13.3,0.1,13.3,0.1c0.5,0,0.8,0.2,1,0.6
	c0.1,0.4,0.1,0.7-0.1,1.1c-0.1,0.1-0.2,0.2-0.3,0.2c-0.1,0.1-0.2,0.1-0.3,0.2c-0.7,0.7-0.9,1.5-0.6,2.4c0,0.1,8.9,25.7,9.2,26.4
	c0,0.1,0,0.2,0.1,0.2l0.2-0.2c0.1-0.1,9.5-27,9.7-27.5c0.1-0.5,0-0.9-0.2-1.2c-0.2-0.3-0.5-0.6-0.9-0.8c-0.4-0.4-0.4-0.8,0.1-1.2
	c0.1-0.1,0.2-0.1,0.3-0.2c0.1,0,0.3-0.1,0.3-0.1c0,0,8.6,0,8.8,0.1c0.6,0.1,0.9,0.5,0.8,1.1c0,0.4-0.1,0.6-0.4,0.6
	c-0.4,0-0.7,0.2-1.1,0.6c-0.4,0.3-0.7,0.7-1,1.2c-0.3,0.5-12.8,36.4-12.9,36.6c-0.2,0.6,0,1,0.4,1.3c0.3,0.2,0.6,0.4,0.9,0.6
	c0.1,0.1,0.2,0.2,0.2,0.2c0.1,0,0.1,0.1,0.2,0.2c0.1,0.2,0.2,0.4,0.1,0.6c-0.1,0.2-0.2,0.3-0.4,0.4c-0.6,0.1-1.2,0.2-1.8,0.2
	C248,77.1,237,77.1,235.5,76.9z"/>
<path class="st0" d="M268.6,38.6c-0.1-1.2-0.6-2.2-1.5-3c-0.4-0.3-0.6-0.5-0.7-0.7c-0.1-0.2-0.2-0.4-0.1-0.6
	c0.1-0.2,0.3-0.3,0.5-0.3c0.2,0,0.4-0.1,0.5-0.1c0.2,0,15.8,0,16.8-0.1c0.9,0,1.8-0.1,2.7-0.2c0.9-0.1,1.7-0.2,2.7-0.4
	c0.3-0.1,0.6-0.2,1-0.3c0.3-0.1,0.6-0.3,0.8-0.5c0-0.1,0.1-0.2,0.2-0.2c0.1,0,0.2-0.1,0.3-0.1c0.3,0,0.4,0.1,0.5,0.3
	c0.1,0.1,0.1,0.2,0.2,0.3c0,0.1,0.1,0.3,0.1,0.3c0.3,1.1,0.6,2.2,0.9,3.3c0.3,1.1,0.6,2.2,0.9,3.3c0,0.2,0.1,0.4,0.1,0.6
	c0,0.2,0,0.4,0,0.6c0,0.2-0.1,0.4-0.3,0.6c-0.1,0.2-0.3,0.3-0.5,0.3c-0.1,0-0.2,0-0.4-0.1c-0.1-0.1-0.2-0.2-0.3-0.3
	c-0.1-0.1-0.2-0.2-0.3-0.3c-0.4-0.5-0.8-0.9-1.3-1.2c-0.5-0.3-1-0.7-1.5-1c-0.8-0.5-1.6-0.8-2.4-1c-0.8-0.2-1.7-0.4-2.6-0.5
	c-0.5,0-1,0-1.6,0.1c-0.6,0.1-1.2,0.2-1.7,0.4s-1,0.5-1.3,0.9c-0.4,0.4-0.6,0.9-0.6,1.5c0,0.8,0,11.1-0.1,12.4c0,0.3,0,0.6,0.1,0.7
	c0,0,0,0.1,0.1,0.2c0,0,0.1,0,0.2-0.1c0.1-0.1,0.2-0.3,0.3-0.4c0.1-0.2,0.2-0.3,0.4-0.4c0.4-0.5,0.8-0.9,1.2-1.2
	c0.7-0.6,1.5-0.9,2.3-0.9c0.4,0,0.9,0.1,1.5,0.3c0.6,0.2,1.1,0.3,1.5,0.5c0.3,0.1,0.6,0.2,1,0.3c0.3,0.1,0.7,0.2,1,0.3
	c0.4,0.1,0.7,0.1,0.9,0.1c0.8,0,1.5-0.3,2.1-0.9c0.1-0.2,0.3-0.4,0.5-0.4c0.1-0.1,0.2-0.1,0.3-0.1c0.2,0,0.4,0.1,0.5,0.3
	c0.1,0.2,0.1,0.3,0.1,0.5c0,0.2,0,0.5,0,0.8c0,0.3,0,0.5-0.1,0.8c-0.2,0.6-0.4,1.2-0.8,1.8c-0.3,0.6-0.7,1.2-1.2,1.7
	c-0.5,0.5-1,0.9-1.6,1.2c-0.6,0.3-1.2,0.4-1.9,0.4c-0.5,0-1-0.1-1.5-0.3c-0.2-0.1-0.4-0.2-0.6-0.3c-0.2-0.1-0.4-0.3-0.6-0.3
	c-0.4-0.2-0.7-0.4-1.1-0.6c-0.4-0.2-0.8-0.3-1.2-0.4c-0.4-0.1-0.6-0.1-0.8-0.1c-1,0-1.8,0.5-2.4,1.5c-0.1,0.2-0.2,0.5-0.3,0.8
	c-0.1,0.3-0.2,0.6-0.2,0.8c-0.1,1.4-0.2,9.9-0.2,10.9c0,1,0.4,1.8,1.2,2.5c0.6,0.5,1.3,0.7,1.9,0.9c0.6,0.1,1.3,0.2,2.1,0.2
	c1.6-0.2,3.1-0.7,4.5-1.5c1.5-0.8,2.7-1.8,3.8-3c0.2-0.3,0.5-0.5,0.8-0.8c0.3-0.3,0.7-0.4,1-0.6c0.2-0.1,0.3-0.1,0.5-0.1
	c0.1,0,0.3,0.1,0.4,0.2c0.3,0.3,0.4,0.6,0.2,1c0,0.2-0.2,0.5-0.3,0.8c-0.6,1.2-1.2,2.4-1.8,3.7c-0.6,1.3-1.1,2.6-1.6,3.9
	c0,0.1-0.1,0.2-0.1,0.2c0,0,0,0.1-0.1,0.1c-0.2,0.5-0.5,0.8-0.8,0.8c-0.3,0-0.5-0.1-0.8-0.3c-0.5-0.4-1-0.6-1.6-0.8
	c-0.6-0.1-1.2-0.2-1.8-0.2c-1.4,0-20.2-0.3-20.2-0.3c-0.2,0-0.3-0.1-0.4-0.2c-0.1-0.2-0.1-0.3,0-0.4c0.1-0.2,0.3-0.4,0.6-0.7
	c1-1.1,1.5-2.3,1.5-3.9C268.5,69.3,268.7,39.3,268.6,38.6z"/>
<path class="st0" d="M327.6,50.2V40.1c0-0.9-0.1-1.8-0.3-2.5c-0.2-0.8-0.7-1.5-1.5-2.1c-0.1-0.1-0.2-0.2-0.2-0.2
	c-0.1,0-0.1-0.1-0.2-0.2c-0.1-0.1-0.1-0.4-0.1-0.7c0-0.2,0.2-0.3,0.5-0.3c0.1,0,0.2-0.1,0.4-0.1c0,0,9.4,0,10.1,0.1h0.5
	c0.8,0.2,1,0.7,0.4,1.3c-0.2,0.2-0.4,0.4-0.5,0.6c-0.2,0.1-0.3,0.3-0.4,0.6c-0.4,0.6-0.7,1.1-0.9,1.8c-0.2,0.6-0.3,1.3-0.3,1.9
	c-0.1,1.3-0.5,29-0.5,29.5c0,0.6,0,1.1,0.1,1.7c0,1.5,0.6,2.8,1.7,3.7c0.1,0.1,0.3,0.3,0.6,0.5c0.3,0.3,0.4,0.5,0.3,0.8
	c0,0.2-0.2,0.3-0.4,0.3h-0.2c-0.8,0-8.8,0.1-9.4,0c-0.5,0-0.9-0.1-1.1-0.2c-0.7-0.4-1.5-1-2.1-1.8c-0.7-0.8-1.3-1.6-1.9-2.4
	c-0.6-0.9-11.5-20.7-12.3-22.1c-0.1-0.1-0.2-0.3-0.2-0.4c-0.1-0.1-0.1-0.3-0.2-0.4c-0.1-0.1-0.2-0.1-0.2-0.1
	c-0.1,0.1-0.1,0.2-0.1,0.2c0,0.1-0.1,21.2-0.1,21.2c-0.1,2,0.6,3.6,2.1,4.7c0.3,0.3,0.5,0.5,0.6,0.6c0.1,0.1,0.1,0.3,0,0.4
	c-0.1,0.2-0.2,0.2-0.4,0.2c-0.3,0-0.6,0.1-0.9,0.1c-0.3,0-9.2,0-9.5,0s-0.6,0-0.8-0.1c-0.2,0-0.3-0.1-0.4-0.2
	c-0.1-0.1-0.1-0.3,0-0.4c0.1-0.3,0.3-0.5,0.5-0.6c0.5-0.5,0.9-1,1.1-1.6c0.2-0.6,0.4-1.2,0.4-1.8c0-0.2,0.3-26.4,0.3-31.4
	c0-1-0.1-1.9-0.3-2.7c-0.2-0.9-0.7-1.6-1.5-2.3c-0.2-0.1-0.4-0.2-0.4-0.3c-0.1-0.3-0.1-0.5-0.1-0.7c0-0.2,0.3-0.3,0.6-0.3
	c0,0,0.1-0.1,0.2-0.1c1.7,0,8.4,0.1,10,0.1c0.9,0,1.5,0.3,2,1c0.1,0.2,0.2,0.4,0.3,0.5c0.1,0.2,13.2,24,13.3,24.3
	c0.2,0.3,0.3,0.6,0.5,1c0.1,0.2,0.2,0.3,0.3,0.5c0.1,0.1,0.2,0.3,0.3,0.5c0,0,0.1,0.1,0.3,0.1l0.1-0.1v-1.4c0-1.1,0-2.2,0-3.3
	c0-1.1,0-2.2,0-3.2V50.2z"/>
<path class="st0" d="M352.4,40.6c0-0.5,0-0.8-0.1-1c0-0.4-0.3-0.7-0.9-0.8c-0.1,0-0.3-0.1-0.3-0.1c-1,0-1.8,0.1-2.4,0.1
	c-0.6,0-1.4,0.1-2.4,0.2c-1.1,0.1-2,0.3-2.8,0.7c-0.8,0.3-1.5,1-2.2,1.8c-0.1,0.2-0.3,0.4-0.4,0.7c-0.1,0.2-0.3,0.4-0.4,0.6
	c-0.2,0.3-0.3,0.4-0.5,0.5c-0.1,0-0.2,0.1-0.3,0.1c-0.5,0-0.7-0.2-0.8-0.7c0-0.2,0-0.4,0-0.6c0-0.2,0-0.4,0.1-0.6
	c0.3-1.3,0.6-2.7,1-4.2c0.3-1.5,0.6-2.9,1-4.1c0-0.1,0.1-0.1,0.1-0.1c0,0,0,0,0,0c0.1-0.4,0.3-0.6,0.5-0.6c0.1,0,0.3,0.1,0.5,0.2
	c0.6,0.5,1.2,0.8,1.8,0.8c0.7,0,3.9,0.3,4.6,0.3c0.7,0,1.5,0.1,2.6,0.1h15.7c0.4,0,0.9,0,1.7-0.1c0.7,0,1.5-0.1,2.3-0.2
	c0.8-0.1,1.5-0.2,2.2-0.4c0.7-0.2,1.2-0.4,1.5-0.6c0.1-0.1,0.2-0.1,0.3-0.1c0.2,0,0.4,0.1,0.4,0.3c0.1,0.2,0.2,0.4,0.2,0.6
	c0.1,0.1,0.1,0.3,0.2,0.6c0.2,0.6,0.4,1.4,0.5,2.3c0.2,0.9,0.3,1.7,0.5,2.3c0.1,0.4,0.3,0.8,0.4,1.2c0.1,0.4,0.3,0.8,0.4,1.2
	c0.1,0.5,0.1,0.8,0.1,1.1c0,0.4-0.2,0.6-0.6,0.8c-0.1,0-0.2,0.1-0.3,0.1c-0.1,0-0.3,0-0.3-0.1c-0.1-0.1-0.3-0.3-0.4-0.4
	c-0.1-0.1-0.3-0.2-0.4-0.4c-0.8-1-1.7-1.7-2.8-2.2c-1.1-0.5-2.2-0.9-3.4-1.1c-1.4-0.1-2.9-0.2-4.4-0.2c-0.4,0-0.7,0.2-0.9,0.6
	c-0.2,0.3-0.3,0.7-0.4,1.1c-0.1,0.9-0.6,30.6-0.6,30.6c0,0.8,0.1,1.5,0.2,2.1c0.1,0.6,0.5,1.2,1.2,1.7c0.1,0.1,0.2,0.2,0.3,0.3
	c0.1,0.1,0.3,0.2,0.3,0.4c0.2,0.2,0.3,0.5,0.1,0.8c-0.1,0.3-0.4,0.5-0.7,0.5c-1.1,0-13.1,0-13.3,0c-0.3,0-0.6,0-0.9-0.1
	c-0.2-0.1-0.3-0.2-0.3-0.4c0-0.3,0.4-0.8,0.6-1c1-1.1,1.5-2.4,1.5-3.9C352.1,68.6,352.4,40.8,352.4,40.6z"/>
<path class="st0" d="M381.4,41.2c0-0.7-0.1-1.5-0.1-2.3c0-1.5-0.6-2.7-1.9-3.6c-0.1-0.1-0.2-0.2-0.3-0.3c-0.1-0.1-0.2-0.2-0.3-0.3
	c-0.1-0.1-0.1-0.3,0-0.4c0.1-0.2,0.2-0.2,0.4-0.2c0.1,0,16.4-0.1,16.4-0.1c0.3,0,0.5,0.1,0.7,0.3c0.1,0.2,0.1,0.5-0.1,0.7
	c-0.1,0.2-0.3,0.4-0.6,0.7c-2,1.8-2.9,4.1-2.8,6.9c0.2,4.8,0,9.6,0,14.4c0,3.3-0.2,6.8,0.6,10.1c0.7,2.9,2.4,5.9,5.5,6.3
	c3.8,0.6,6.8-2.2,7.9-5.6c0.9-2.9,0.9-5.9,0.9-8.9c0-2.6,0-5.2,0.1-7.9c0-3.4,0.1-6.7,0.1-10.1c0-1-0.2-2-0.5-3
	c-0.3-1-0.9-1.8-1.8-2.5c-0.2-0.2-0.4-0.4-0.5-0.6c-0.1-0.2-0.2-0.4-0.1-0.6c0.1-0.2,0.3-0.3,0.5-0.3h12.6c0.3,0,0.5,0.1,0.6,0.3
	c0,0.2-0.1,0.5-0.3,0.9c-0.7,0.7-1.2,1.4-1.5,2.1c-0.3,0.7-0.5,1.5-0.6,2.6c-0.1,2.3-0.4,21.7-0.4,22.4c0,0.7-0.1,1.5-0.2,2.2
	c-0.1,1.3-0.4,2.5-0.9,3.8c-2.8,6.4-9.1,9.4-15.9,9.4c-5,0-10.2-1.7-13.7-5.5c-1.1-1.2-2-2.7-2.7-4.4c-0.4-1.1-0.7-2.1-0.9-3.2
	c-0.2-1.1-0.4-8.9-0.3-10c0-0.7,0.1-6.6,0.1-7.7C381.5,45.6,381.5,41.9,381.4,41.2z"/>
<path class="st0" d="M458.3,73c-0.4-0.3-0.6-0.5-0.8-0.6c-2.7-1.6-4.7-3.6-6-6c-1.3-2.4-2.3-5.1-3.2-8c-0.1-0.6,0-1,0.6-1.2
	c0.1-0.1,0.2-0.1,0.3-0.2c0.1,0,0.3-0.1,0.3-0.2c1.6-0.8,3-2,4.1-3.6c2.8-4.1,4.1-9.3,1.2-13.7c-2.1-3.2-5.4-4.7-9.1-5.2
	c-3.9-0.6-7.9-0.5-11.8-0.4c-1.9,0-3.8,0.1-5.7,0.1c-1,0-2,0-3,0c-0.9,0-2.1-0.2-3,0c-0.3,0.1-0.5,0.2-0.6,0.3c0,0.1,0,0.4,0.1,0.7
	c0,0.1,0.1,0.2,0.3,0.3c0.6,0.6,1.1,1.2,1.4,1.9c0.3,0.7,0.4,1.5,0.4,2.3c0,4.7-0.3,31.3-0.3,32c0,1.5-0.5,2.8-1.6,3.8
	c-0.2,0.2-0.3,0.3-0.4,0.5c0,0.1-0.1,0.3-0.1,0.6c0,0,0.1,0.1,0.2,0.1c0.1,0,0.1,0.1,0.2,0.1h0.1h3.7c3.6-0.1,7.2-0.2,10.8-0.2
	c0.3,0,0.5-0.1,0.6-0.3c0.1-0.3,0-0.5-0.2-0.6c-0.2-0.2-0.4-0.4-0.6-0.5c-0.4-0.3-0.7-0.7-1-1c-0.3-0.4-0.5-0.8-0.6-1.3
	c-0.2-0.9-0.3-10.1-0.3-11.6v-0.5c0-0.5,0.3-0.7,0.7-0.8c0.2,0,0.4-0.1,0.6-0.1c0.2,0,0.4,0,0.6,0c0.5,0,0.9,0,1.1,0.1
	c0.2,0.1,0.5,0.3,0.8,0.7c0.1,0.1,0.2,0.3,0.2,0.4c0.1,0.2,0.1,0.3,0.2,0.5c0.5,1.3,1.1,2.9,1.8,4.7c0.7,1.8,1.6,3.6,2.6,5.2
	c1,1.7,2.2,3.1,3.6,4.2c1.3,1.2,2.8,1.7,4.5,1.7c1.1,0,2.1-0.2,3.2-0.7C455.4,76.3,459.7,74,458.3,73z M444.7,52.3
	c-1.1,1.4-2.6,2.4-4.2,3c-1.4,0.5-3.6,1.4-5.2,1.2c-0.2,0-0.3-0.1-0.4-0.2c-0.1-0.1-0.1-0.3-0.1-0.5c-0.2-3.5-0.1-7.1,0.1-10.6
	c0.1-1.7,0.1-3.5,0.2-5.2c0.1-1,0.1-2.6,1-3.2c0.2-0.1,0.4-0.2,0.7-0.2c2.3-0.4,4.9,0.1,6.8,1.4C448.4,41.1,447.9,48.3,444.7,52.3z"
	/>
<path class="st0" d="M463.2,39.3c-0.1-1.2-0.6-2.2-1.5-3c-0.4-0.3-0.6-0.5-0.7-0.7c-0.1-0.2-0.2-0.4-0.1-0.6
	c0.1-0.2,0.3-0.3,0.5-0.3c0.2,0,0.4-0.1,0.5-0.1c3.9,0,7.9,0.1,11.8,0.1c2,0,3.9-0.1,5.9-0.2c1.8-0.1,3.7-0.2,5.4-0.8
	c0.3-0.1,0.6-0.3,0.8-0.5c0-0.1,0.1-0.2,0.2-0.2c0.1,0,0.2-0.1,0.3-0.1c0.3,0,0.4,0.1,0.5,0.3c0.1,0.1,0.1,0.2,0.2,0.3
	c0,0.1,0.1,0.3,0.1,0.3c0.3,1.1,0.6,2.2,0.9,3.3c0.3,1.3,1.6,3.8,0.8,5.1c-0.1,0.2-0.3,0.4-0.6,0.4c-0.7,0-1.9-1.6-2.5-2.1
	c-0.9-0.7-2-1.3-3.1-1.7c-1.8-0.7-3.9-0.9-5.8-0.4c-1.3,0.3-2.6,1.1-2.6,2.6c0,0.8,0,11.1-0.1,12.4c0,0.3,0,0.6,0.1,0.7
	c0,0,0,0.1,0.1,0.2c0,0,0.1,0,0.2-0.1c0.1-0.1,0.2-0.3,0.3-0.4c0.1-0.2,0.2-0.3,0.4-0.4c0.4-0.5,0.8-0.9,1.2-1.2
	c1-0.9,2.3-1,3.6-0.7c1,0.2,1.9,0.7,2.8,1c0.8,0.2,1.8,0.5,2.6,0.3c0.7-0.2,1.2-0.9,1.8-1.2c0.2-0.1,0.4-0.1,0.6,0
	c0.2,0.1,0.3,0.4,0.4,0.7c0.2,1.2-0.2,2.3-0.8,3.4c-0.3,0.6-0.7,1.2-1.2,1.7c-1.4,1.4-3.4,2-5.3,1.1c-1-0.5-2-1.2-3.1-1.6
	c-1.4-0.4-2.7,0.1-3.4,1.3c-0.1,0.2-0.2,0.5-0.3,0.8c-0.1,0.3-0.2,0.6-0.2,0.8c-0.1,1.4-0.2,9.9-0.2,10.9c0,4.3,6.1,3.8,8.7,2.6
	c1.3-0.6,2.5-1.5,3.6-2.4c1-0.9,1.9-2.1,3.1-2.6c0.2-0.1,0.4-0.1,0.6-0.1c0.3,0.1,0.6,0.4,0.6,0.7c0.1,0.7-0.6,1.6-0.9,2.2
	c-0.5,0.9-0.9,1.8-1.3,2.7c-0.6,1.4-1.1,2.8-1.7,4.2c-0.1,0.3-0.3,0.6-0.6,0.7c-0.4,0.1-0.8-0.1-1.1-0.4c-2-1.2-4.7-0.9-7-0.9
	c-2.6,0-5.3-0.1-7.9-0.1c-2.9,0-5.7-0.1-8.6-0.1c-0.2,0-0.3-0.1-0.4-0.2c-0.1-0.2-0.1-0.3,0-0.4c0.1-0.2,0.3-0.4,0.6-0.7
	c1-1.1,1.5-2.3,1.5-3.9C463.1,69.9,463.3,40,463.2,39.3z"/>
<path class="st0" d="M573.1,94.2c1.1-0.1,2.1-0.3,3-0.7c1.5-0.7,3.1-1.6,4.4-2.6c0.4-0.3,0.8-0.6,1.2-0.7c0.3-0.1,0.6-0.1,0.9,0
	c0.4,0.2,0.5,0.7,0.5,1.2c-0.1,0.6-0.5,1.4-0.8,1.9c-2,3.2-4.3,6.4-5.8,9.9c-0.4,1-0.8,1.5-1.2,1.4c-0.3-0.1-0.6-0.4-1.1-0.9
	c-1.2-1.3-2.2-1.8-3.9-2.5c-4.8-1.9-40-6.7-45.2-6.8c-3.2,0-6.4-0.1-9.5-0.1c-0.2,0-0.4,0-0.6-0.1c-0.2-0.1-0.3-0.3-0.3-0.5
	c0-0.1,0.1-0.2,0.1-0.3c0.7-1.1,1.7-2,2.1-3.3c0.3-1,0.5-2,0.5-3.1c0.1-0.2,0.1-60,0-61c-0.2-2-0.9-3.5-2.2-4.6
	c-0.2-0.2-0.3-0.3-0.3-0.3c-0.2-0.3-0.3-0.6-0.3-0.8c0-0.2,0.1-0.3,0.2-0.4c0.1,0,0.3-0.1,0.5-0.1H533c0.3,0,0.5,0.1,0.6,0.3
	c0.3,0.7,0.3,1.3-0.1,1.9c-0.1,0.2-0.3,0.4-0.6,0.7c-0.8,1-1.4,2.1-1.7,3.4c-0.3,2.1-0.3,57.1-0.3,58.9c0,0.1,0,1.2,0,1.3
	c0,0.1,0.1,0.8,0.1,1c0.1,0.7,0.3,1.2,1,1.3C535.1,88.7,570,94.4,573.1,94.2z"/>
<path class="st0" d="M555.4,35.3c0.3,0,0.5,0,0.7,0.1c0.4,0.1,0.8,0.4,0.7,0.8c0,0.1-0.1,0.3-0.2,0.4c-0.9,1-1.6,1.8-1.9,3.1
	c-0.2,1.1-0.3,2.2-0.3,3.4c0,0.8-0.3,20.8-0.3,29c-0.1,2,0.6,3.5,2.1,4.6c0,0,0.1,0.1,0.1,0.1c0,0,0.1,0.1,0.1,0.2
	c0.2,0.1,0.2,0.4,0.1,0.7c0,0.2-0.2,0.3-0.5,0.3L541.4,78c-0.3,0-0.4-0.1-0.5-0.3c0-0.2,0-0.4,0.1-0.6c0.1-0.1,0.2-0.2,0.2-0.3
	c0.1-0.1,0.1-0.2,0.2-0.3c0.9-1.1,1.4-2.3,1.5-3.7l0.2-32.6c-0.1-0.7-0.3-1.3-0.5-1.9c-0.3-0.6-0.7-1.1-1.3-1.5
	c-0.3-0.2-0.6-0.5-0.6-0.9c0-0.2,0.3-0.4,0.5-0.4C542.6,35.2,554.3,35.2,555.4,35.3z"/>
<path class="st0" d="M594.9,55.6c-1.2-0.9-2.5-1.6-4-1.9c-0.6-0.1-1.4,0-1.9-0.5c-0.3-0.3,1-0.8,1.1-0.8c3.9-1.7,7.6-7.5,5.3-11.7
	c-0.8-1.5-2.2-2.8-3.7-3.6c-4-2.3-8.8-1.7-13.1-1.7c-4.8,0-9.6,0-14.4,0c-0.6,0-1.1,0-1.7,0c-0.2,0-0.4,0.2-0.5,0.3
	c-0.1,0.2-0.1,0.4,0.1,0.6c0.1,0.1,0.2,0.3,0.3,0.4c0.1,0.1,0.3,0.2,0.3,0.3c0.9,0.9,1.4,1.9,1.5,3.1c0,0-0.3,32.8-0.3,33.3
	c0,1.2-0.5,2.1-1.2,3c-0.1,0.1-0.2,0.2-0.2,0.3c-0.1,0.1-0.1,0.2-0.2,0.3c-0.1,0-0.2,0.2-0.3,0.4c-0.1,0.1-0.1,0.3,0,0.4
	c0.1,0.1,0.2,0.2,0.4,0.2h1c5,0,10,0,15-0.1c4.6-0.1,9.7,0.4,13.8-1.9c0.2-0.1,0.4-0.2,0.6-0.3c2.2-1.4,4-3.5,5-5.9
	c0.7-1.5,1.1-3.2,1.2-5.1C599.2,61.2,597.6,57.7,594.9,55.6z M575.5,40.8c0-0.1,0-0.2,0-0.4c0.5-1.8,2.5-1.7,4-1.7
	c1.7,0,3.6,0.2,4.9,1.5c1.7,1.7,1.9,4,1.1,6.1c-0.7,1.7-1.8,3.5-3.1,4.7c-1.5,1.5-3.4,2.4-5.8,2.7h-0.8c-0.4,0-0.6-0.2-0.6-0.5
	c0-1.9-0.1-3.8-0.1-5.7C575.2,45.4,575.1,43,575.5,40.8z M588,68.5c-0.9,3-2.7,5.6-5.8,6c-1.8,0.4-3.6,0.4-5.5,0.3
	c-0.6,0-1-0.2-1.2-0.4c-0.7-0.7-0.6-2-0.6-2.9c0-1.3,0.1-2.6,0.1-3.9c0-3.3,0.1-6.5,0.1-9.8c0-0.4,0.2-0.7,0.6-0.8
	c1.7-0.5,3.5-0.9,5.3-1c3.9,0,6.3,1.9,7.3,5.7C588.7,63.7,588.7,66.2,588,68.5z"/>
<path class="st0" d="M683,76.5c-0.1,0-0.2-0.1-0.2-0.1c-1-0.4-1.7-1.4-2.2-2.3c-1.4-2.4-11.7-33.6-12.1-34.6
	c-0.2-0.6-0.7-1.5-0.4-2.1c0.3-0.7,1-0.8,1.5-1.3c0.4-0.4,0.5-1.2-0.2-1.2c-0.8-0.1-13.5-0.1-14.2,0c-0.1,0-0.2,0.1-0.3,0.1
	c-0.1,0-0.2,0-0.3,0.1c-0.3,0.1-0.4,0.3-0.4,0.5c0,0.3,0.1,0.5,0.3,0.7c0.1,0.1,0.2,0.2,0.3,0.2c0.1,0.1,0.3,0.1,0.3,0.2
	c0.8,0.6,1.2,1.2,1,2.2c-0.5,2.7-12.6,35.8-13,36.4c-0.4,0.6-1,1.1-1.6,1.5c-0.1,0-0.3,0.1-0.4,0.4c-0.1,0.3-0.2,0.4-0.2,0.5
	c0.1,0.4,0.3,0.6,0.7,0.7c1.2,0.3,12.8,0,13.6-0.1c0.5,0,0.8-0.2,0.9-0.5c0.2-0.3,0.1-0.7-0.2-1.1c-0.1-0.1-0.3-0.3-0.5-0.6
	c-0.7-0.6-0.9-1.4-0.7-2.3c0-0.2,2.2-6.4,2.2-6.4c0.1-0.5,0.4-0.7,0.9-0.8c1.1,0,13.1-0.1,13.1-0.1c0.6,0,1.1,0.3,1.2,0.9
	c0.2,0.7,1.8,6.5,1.9,7c0.1,0.8-0.1,1.5-0.8,2l-0.4,0.4c-0.2,0.2-0.3,0.5-0.2,0.8c0.1,0.3,0.2,0.5,0.5,0.6c0.2,0.1,8.1,0.1,8.4,0.1
	c0.4,0,0.8-0.1,1.2-0.2c0.6-0.2,0.8-1,0.2-1.4C683.2,76.5,683.1,76.5,683,76.5z M670.3,61.6c0,0.1-0.2,0.1-0.4,0.1
	c-0.5,0-9.4,0.3-10.2,0.2c-0.4,0-0.6-0.2-0.4-0.6c0.1-0.4,5.2-15,5.3-15.3l0.2-0.2c0,0,0,0.1,0.1,0.1c0,0,0.1,0,0.1,0.1
	c0.1,0.2,5.2,14.6,5.3,14.8c0,0.1,0.1,0.3,0.1,0.4C670.4,61.4,670.4,61.6,670.3,61.6z"/>
<path class="st0" d="M638.3,74.1c-0.4-0.3-0.6-0.5-0.8-0.6c-2.7-1.6-4.7-3.6-6-6c-1.3-2.4-2.3-5.1-3.2-8c-0.1-0.6,0-1,0.6-1.2
	c0.1-0.1,0.2-0.1,0.3-0.2c0.1,0,0.3-0.1,0.3-0.2c1.6-0.8,3-2,4.1-3.6c2.8-4.1,4.1-9.3,1.2-13.7c-2.1-3.2-5.4-4.7-9.1-5.2
	c-3.9-0.6-7.9-0.5-11.8-0.4c-1.9,0-3.8,0.1-5.7,0.1c-1,0-2,0-3,0c-0.9,0-2.1-0.2-3,0c-0.3,0.1-0.5,0.2-0.6,0.3c0,0.1,0,0.4,0.1,0.7
	c0,0.1,0.1,0.2,0.3,0.3c0.6,0.6,1.1,1.2,1.4,1.9c0.3,0.7,0.4,1.5,0.4,2.3c0,4.7-0.3,31.3-0.3,32c0,1.5-0.5,2.8-1.6,3.8
	c-0.2,0.2-0.3,0.3-0.4,0.5c0,0.1-0.1,0.3-0.1,0.6c0,0,0.1,0.1,0.2,0.1c0.1,0,0.1,0.1,0.2,0.1h0.1h3.7c3.6-0.1,7.2-0.2,10.8-0.2
	c0.3,0,0.5-0.1,0.6-0.3c0.1-0.3,0-0.5-0.2-0.6c-0.2-0.2-0.4-0.4-0.6-0.5c-0.4-0.3-0.7-0.7-1-1c-0.3-0.4-0.5-0.8-0.6-1.3
	c-0.2-0.9-0.3-10.1-0.3-11.6v-0.5c0-0.5,0.3-0.7,0.7-0.8c0.2,0,0.4-0.1,0.6-0.1c0.2,0,0.4,0,0.6,0c0.5,0,0.9,0,1.1,0.1
	c0.2,0.1,0.5,0.3,0.8,0.7c0.1,0.1,0.2,0.3,0.2,0.4c0.1,0.2,0.1,0.3,0.2,0.5c0.5,1.3,1.1,2.9,1.8,4.7c0.7,1.8,1.6,3.6,2.6,5.2
	c1,1.7,2.2,3.1,3.6,4.2c1.3,1.2,2.8,1.7,4.5,1.7c1.1,0,2.1-0.2,3.2-0.7C635.3,77.5,639.7,75.2,638.3,74.1z M624.7,53.5
	c-1.1,1.4-2.6,2.4-4.2,3c-1.4,0.5-3.6,1.4-5.2,1.2c-0.2,0-0.3-0.1-0.4-0.2c-0.1-0.1-0.1-0.3-0.1-0.5c-0.2-3.5-0.1-7.1,0.1-10.6
	c0.1-1.7,0.1-3.5,0.2-5.2c0.1-1,0.1-2.6,1-3.2c0.2-0.1,0.4-0.2,0.7-0.2c2.3-0.4,4.9,0.1,6.8,1.4C628.4,42.2,627.9,49.4,624.7,53.5z"
	/>
<path class="st0" d="M722.9,74.1c-0.4-0.3-0.6-0.5-0.8-0.6c-2.7-1.6-4.7-3.6-6-6c-1.3-2.4-2.3-5.1-3.2-8c-0.1-0.6,0-1,0.6-1.2
	c0.1-0.1,0.2-0.1,0.3-0.2c0.1,0,0.3-0.1,0.3-0.2c1.6-0.8,3-2,4.1-3.6c2.8-4.1,4.1-9.3,1.2-13.7c-2.1-3.2-5.4-4.7-9.1-5.2
	c-3.9-0.6-7.9-0.5-11.8-0.4c-1.9,0-3.8,0.1-5.7,0.1c-1,0-2,0-3,0c-0.9,0-2.1-0.2-3,0c-0.3,0.1-0.5,0.2-0.6,0.3c0,0.1,0,0.4,0.1,0.7
	c0,0.1,0.1,0.2,0.3,0.3c0.6,0.6,1.1,1.2,1.4,1.9c0.3,0.7,0.4,1.5,0.4,2.3c0,4.7-0.3,31.3-0.3,32c0,1.5-0.5,2.8-1.6,3.8
	c-0.2,0.2-0.3,0.3-0.4,0.5c0,0.1-0.1,0.3-0.1,0.6c0,0,0.1,0.1,0.2,0.1c0.1,0,0.1,0.1,0.2,0.1h0.1h3.7c3.6-0.1,7.2-0.2,10.8-0.2
	c0.3,0,0.5-0.1,0.6-0.3c0.1-0.3,0-0.5-0.2-0.6c-0.2-0.2-0.4-0.4-0.6-0.5c-0.4-0.3-0.7-0.7-1-1c-0.3-0.4-0.5-0.8-0.6-1.3
	c-0.2-0.9-0.3-10.1-0.3-11.6v-0.5c0-0.5,0.3-0.7,0.7-0.8c0.2,0,0.4-0.1,0.6-0.1c0.2,0,0.4,0,0.6,0c0.5,0,0.9,0,1.1,0.1
	c0.2,0.1,0.5,0.3,0.8,0.7c0.1,0.1,0.2,0.3,0.2,0.4c0.1,0.2,0.1,0.3,0.2,0.5c0.5,1.3,1.1,2.9,1.8,4.7c0.7,1.8,1.6,3.6,2.6,5.2
	c1,1.7,2.2,3.1,3.6,4.2c1.3,1.2,2.8,1.7,4.5,1.7c1.1,0,2.1-0.2,3.2-0.7C720,77.5,724.3,75.2,722.9,74.1z M709.3,53.5
	c-1.1,1.4-2.6,2.4-4.2,3c-1.4,0.5-3.6,1.4-5.2,1.2c-0.2,0-0.3-0.1-0.4-0.2c-0.1-0.1-0.1-0.3-0.1-0.5c-0.2-3.5-0.1-7.1,0.1-10.6
	c0.1-1.7,0.1-3.5,0.2-5.2c0.1-1,0.1-2.6,1-3.2c0.2-0.1,0.4-0.2,0.7-0.2c2.3-0.4,4.9,0.1,6.8,1.4C713,42.2,712.5,49.4,709.3,53.5z"/>
<path class="st0" d="M732.8,78c-0.3,0-0.6,0-0.8-0.1c-0.1,0-0.2-0.1-0.2-0.2c0-0.1,0-0.2,0-0.3c0.2-0.2,0.3-0.4,0.4-0.5
	c1.9-1.4,2.1-3.4,2.4-5.6c0.5-4.5,0.2-7.2,0.2-11.8c0-0.8-0.2-1.6-0.7-2.3c-1.2-1.7-7.9-15.1-8.6-16.2c-0.7-1.1-1.5-2.2-2.3-3.2
	c-0.5-0.6-1.2-1-1.9-1.3c-0.4-0.2-0.6-0.4-0.6-0.7c0-0.3,0.3-0.5,0.9-0.6h0.6h13h0.3h0.6c0.4,0,0.7,0.3,1,0.7
	c0.2,0.4,0.1,0.8-0.3,1.2l-0.4,0.4c-0.6,0.8-0.7,1.7-0.3,2.5c0.6,1.2,4.4,10.6,4.6,11.2c0.2,0.3,0.3,0.5,0.5,0.6
	c0.2,0.1,0.3,0.1,0.3,0.1c0.1,0,0.2,0,0.4-0.1c0.1-0.1,0.2-0.2,0.3-0.3c0.1-0.1,0.2-0.2,0.3-0.4c1.2-1.7,5.6-10.5,6.7-12.3
	c0.3-0.6,0.3-1.2,0.1-1.9c-0.1-0.2-0.2-0.4-0.3-0.7c-0.1-0.5,0-0.8,0.5-1c0.1,0,0.3-0.1,0.4-0.1c0.2,0,0.3,0,0.4,0h6.7h1.5
	c0.4,0,0.7,0.2,0.8,0.5c0,0.2,0.1,0.4,0.1,0.7c0,0.2-0.1,0.4-0.3,0.7c-0.1,0.1-0.2,0.1-0.3,0.2c-0.1,0-0.2,0.1-0.3,0.2
	c-1.1,0.7-2.2,1.7-3.4,2.9c-1.2,1.2-7.8,13.5-8.4,14.7c-0.3,0.5-0.4,1-0.4,1.5c0,0.4,0,0.8,0,1.2c0,0.4-0.2,10.4-0.2,10.4
	c0,2.9-0.4,5.6,1.5,8c0.1,0.1,0.2,0.3,0.3,0.4c0.1,0.1,0.2,0.2,0.2,0.4c0.2,0.5,0,0.9-0.6,1C747.3,78,732.8,78,732.8,78z"/>
<path class="st0" d="M176.8,93.3c-0.7-1.1-1.7-2-2.1-3.3c-0.3-1-0.5-2-0.5-3.1c-0.1-0.2-0.1-60,0-61c0.2-2,0.9-3.5,2.2-4.6
	c0.2-0.2,0.3-0.3,0.3-0.3c0.2-0.3,0.3-0.6,0.3-0.8c0-0.2-0.1-0.3-0.2-0.4c-0.1,0-0.3-0.1-0.5-0.1h-17.7c-0.3,0-0.5,0.1-0.6,0.3
	c-0.3,0.7-0.3,1.3,0.1,1.9c0.1,0.2,0.3,0.4,0.6,0.7c0.5,0.6,1.8,1.7,1,2.7c-4.3,6.7-46.1,64.9-47.5,65.6c-0.2,0.1-0.2,0.2-0.5,0.2
	c-0.4,0.1-0.9-0.3-1.2-0.5c-1-0.8-1.3-0.6-1.7-0.4c-0.8,0.4-0.3,1.5-0.1,2.1c1.1,1.8,5,7.6,6.7,11.5c0.3,0.4,0.5,0.9,1,0.6
	c0.5-0.3,1-0.7,1.5-1.3c4.4-4.9,5.9-6.9,7.9-9.7c1.1-1.5,18.1-25.6,18.2-25.6c0.4-0.7,0.7-1.1,2-1l19.5,0.2c0.2,0,0.9-0.3,0.8,1
	c0,2.5,0.1,5.5,0.1,8.2c-0.1,6.5-0.1,11.1-0.2,11.1c0,1.1-0.2,2.2-0.5,3.1c-0.4,1.3-1.3,1.9-2.1,3.1c-0.1,0.1-0.1,0.2-0.1,0.3
	c0,0.2,0.1,0.4,0.3,0.5c0.2,0.1,0.4,0.1,0.6,0.1c0.6,0,9.1-0.2,11.5-0.2c0.2,0,0.4,0,0.6-0.1c0.2-0.1,0.3-0.3,0.3-0.5
	C176.9,93.4,176.9,93.3,176.8,93.3z M165.7,59.7l-14.9,0.1c-0.5-0.2-0.6-0.5-0.2-1.1c0.4-0.6,14.5-19.5,15.7-21.1c0,1.1,0,2.1,0,3.2
	c0,6,0,18.3,0,18.5C166.3,59.7,166.1,59.7,165.7,59.7z"/>
<g>
	<path class="st0" d="M103.9,100.3c1,1,1.8,2.1,2.6,3.2c1.9,2.7,5.4,7.8,5.8,9.3c0.2,0.5-0.4,1-0.9,0.9c-1.5-0.5-6.6-3.9-9.3-5.8
		c-1.1-0.8-2.2-1.7-3.2-2.6L33.2,40l5.6-5.6L103.9,100.3z"/>
	<g>
		<path class="st0" d="M37,32.7l-1.3-0.8c0,0,5.6-4,9.8-3.5l-0.9-3.6c0,0-7,2.4-11,6.5C31.8,33,31.8,33,30,34.8
			c-4.1,4.1-6.5,11-6.5,11l3.6,0.9c-0.5-4.2,3.5-9.8,3.5-9.8l0.8,1.3L37,32.7z"/>
	</g>
	<g>
		<polygon class="st0" points="31.8,29.4 16.9,15.6 14.3,18.2 28.1,33 		"/>
	</g>
	<g>
		<path class="st0" d="M15.6,9.5c1.2,1.2,0.6,3.9-1.4,5.9s-4.7,2.7-5.9,1.4c0,0,1.1-2.6,2.9-4.4C13,10.6,15.6,9.5,15.6,9.5z"/>
	</g>
	<g>
		<circle class="st0" cx="9.2" cy="10.5" r="1.1"/>
	</g>
	<g>
		<path class="st0" d="M64.8,95.2c-5.7,3.9-12.6,9.7-12.6,9.7L19.1,71.8c-2.7,2.2-4.5,3.8-4.5,3.8l33.6,33.6c0,0,8.1-7,14.6-11.8
			c4.2-3.1,11-7.3,14.2-9.3l-0.1-0.1C73.9,89.6,68.3,92.8,64.8,95.2z"/>
	</g>
	<g>
		<path class="st0" d="M70.6,20.4l33.1,33.1c0,0-5.8,6.9-9.7,12.6c-2.4,3.5-5.6,9.2-7.2,12.1l0.1,0.1c2-3.2,6.2-10,9.3-14.2
			C101,57.5,108,49.4,108,49.4L74.4,15.8C74.4,15.8,72.8,17.7,70.6,20.4z"/>
	</g>
	<g>
		<g>
			<path class="st0" d="M40.8,51c-2.5,1.5-6.2,3.8-10.4,6.4c-6.2,3.9-12.8,9.5-12.8,9.5l34.8,34.8c0,0,6.9-5.8,12.6-9.7
				c3-2.1,7.6-4.7,10.7-6.5L40.8,51z M21.5,67.3l1.8-2c0.9,0.8,1.7,1.5,2.7,2.1l-1.5,2.2C23.5,68.9,22.5,68.2,21.5,67.3z M27.7,71.6
				l1.2-2.4c1,0.5,2.1,0.9,3.1,1.2l-0.8,2.6C30.1,72.6,28.9,72.1,27.7,71.6z M39,73.6c-1.3,0.2-2.7,0.3-4,0.1l0.3-2.7
				c1.1,0.1,2.1,0.1,3.2-0.1L39,73.6z M46,70.2c-1.1,0.8-2.2,1.5-3.3,2.1l-1.2-2.4c0.9-0.5,1.9-1.1,2.8-1.8L46,70.2z M48.8,67.7
				l-2-1.8c0.7-0.8,1.5-1.7,2.2-2.7l2.2,1.6C50.4,65.8,49.6,66.8,48.8,67.7z"/>
		</g>
	</g>
	<g>
		<g>
			<path class="st0" d="M56.1,31.7c-2.7,4.2-4.9,7.9-6.4,10.4L84.3,77c1.7-3.1,4.4-7.7,6.5-10.7c3.9-5.7,9.7-12.6,9.7-12.6
				L65.7,18.9C65.7,18.9,60.1,25.5,56.1,31.7z M76.1,35.3c0.8,0.3,1.5,0.6,2.2,1L77,38.6c-0.6-0.3-1.2-0.6-1.8-0.8
				c-0.4-0.1-0.8-0.3-1.2-0.4l0.7-2.6C75.2,35,75.6,35.1,76.1,35.3z M66.9,34.8c1.2-0.4,2.6-0.6,4-0.5l-0.1,2.7
				c-1.1,0-2.1,0.1-3.1,0.4L66.9,34.8z M63.3,36.6l1.6,2.2c-0.8,0.6-1.6,1.4-2.3,2.3l-2.1-1.7C61.3,38.3,62.3,37.4,63.3,36.6z
				 M56.8,45.9c0.5-1.2,1.1-2.4,1.6-3.4l2.4,1.3c-0.5,0.9-1,2-1.5,3.1L56.8,45.9z M89.2,52.6l-4.6,3.5l3.5,4.6l-2.1,1.6l-3.5-4.6
				l-4.6,3.5L76.2,59l4.6-3.5l-3.5-4.6l2.1-1.6l3.5,4.6l4.6-3.5L89.2,52.6z M85.2,49.7l-2.7-0.2c0.1-1.1,0-2.1-0.2-3.2l2.6-0.5
				C85.2,47.1,85.3,48.4,85.2,49.7z M83.7,42.1l-2.4,1.2c-0.5-1-1.1-1.9-1.8-2.6l2-1.8C82.3,39.8,83.1,40.9,83.7,42.1z"/>
		</g>
	</g>
</g>
</svg>
