<?xml version="1.0" encoding="utf-8"?>
<!-- Generator: Adobe Illustrator 25.2.1, SVG Export Plug-In . SVG Version: 6.00 Build 0)  -->
<svg version="1.1" id="Layer_1" xmlns="http://www.w3.org/2000/svg" xmlns:xlink="http://www.w3.org/1999/xlink" x="0px" y="0px"
	 viewBox="0 0 388 182" style="enable-background:new 0 0 388 182;" xml:space="preserve">
<style type="text/css">
	.st0{fill:#FFFFFF;}
</style>
<path class="st0" d="M196.4,141.4c1.1-0.1,2.1-0.3,3-0.7c1.5-0.7,3.1-1.6,4.4-2.6c0.4-0.3,0.8-0.6,1.2-0.7c0.3-0.1,0.6-0.1,0.9,0
	c0.4,0.2,0.5,0.7,0.5,1.2c-0.1,0.6-0.5,1.4-0.8,1.9c-2,3.2-4.3,6.4-5.8,9.9c-0.4,1-0.8,1.5-1.2,1.4c-0.3-0.1-0.6-0.4-1.1-0.9
	c-1.2-1.3-2.2-1.8-3.9-2.5c-4.8-1.9-40-6.7-45.2-6.8c-3.2,0-6.4-0.1-9.5-0.1c-0.2,0-0.4,0-0.6-0.1s-0.3-0.3-0.3-0.5
	c0-0.1,0.1-0.2,0.1-0.3c0.7-1.1,1.7-2,2.1-3.3c0.3-1,0.5-2,0.5-3.1c0.1-0.2,0.1-60,0-61c-0.2-2-0.9-3.5-2.2-4.6
	c-0.2-0.2-0.3-0.3-0.3-0.3c-0.2-0.3-0.3-0.6-0.3-0.8c0-0.2,0.1-0.3,0.2-0.4c0.1,0,0.3-0.1,0.5-0.1h17.7c0.3,0,0.5,0.1,0.6,0.3
	c0.3,0.7,0.3,1.3-0.1,1.9c-0.1,0.2-0.3,0.4-0.6,0.7c-0.8,1-1.4,2.1-1.7,3.4c-0.3,2.1-0.3,57.1-0.3,58.9c0,0.1,0,1.2,0,1.3
	c0,0.1,0.1,0.8,0.1,1c0.1,0.7,0.3,1.2,1,1.3C158.4,135.9,193.3,141.7,196.4,141.4z"/>
<path class="st0" d="M116.6,35c-0.1-1-0.3-2-0.5-2.9c-0.4-2.4-1.2-4.6-2.2-6.6c-1.1-2-2.4-3.8-4-5.3c-1.6-1.5-3.4-2.7-5.6-3.6
	c-2.1-0.9-4.4-1.3-6.9-1.3c-1.4,0-18,0.2-18.2,0.2c-0.2,0-0.4,0.1-0.5,0.3c-0.1,0.2-0.1,0.4,0.1,0.6l0.4,0.4
	c0.8,0.7,1.3,1.5,1.6,2.7c0.1,0.7,0.2,1.5,0.2,2.2c0,0.7-0.2,30.1-0.2,30.1c0,1-0.1,2-0.3,2.9c-0.2,0.9-0.7,1.7-1.4,2.5
	c-0.2,0.1-0.3,0.3-0.4,0.6c-0.2,0.4-0.1,0.6,0.3,0.7c0.4,0.1,0.8,0.2,1.2,0.2c0.4,0,0.8,0.1,1.2,0.1c2.7,0,13.2-0.2,15.9-0.3
	c2.7,0,5.3-0.6,7.6-1.8c2.3-1.1,4.4-2.7,6.1-4.5c1.7-1.9,3.1-4.1,4.1-6.5c1-2.4,1.6-5,1.7-7.6C116.7,37,116.7,36,116.6,35z
	 M107.3,39.3c-0.2,1.4-0.5,2.9-0.8,4.4c-0.4,1.5-0.9,2.9-1.5,4.2c-0.7,1.3-1.5,2.5-2.5,3.6c-1,1.1-2.2,2-3.6,2.7
	c-1.5,0.7-3,1.1-4.5,1.3c-0.2,0-0.6,0.1-1,0.1c-0.8-0.1-1.3-0.5-1.4-1.3c0-0.3,0.4-33.2,0.4-33.4c0-0.3,0.1-0.5,0.1-0.7
	c0.1-0.7,0.5-1,1.1-1c0.2,0,1.1-0.1,1.3-0.1c2,0,3.7,0.4,5.2,1.2c1.5,0.8,2.7,1.9,3.7,3.2c1,1.3,1.8,2.8,2.4,4.5
	c0.6,1.7,1,3.5,1.2,5.3c0.1,1.1,0.2,2.1,0.2,3.1C107.5,37.3,107.4,38.3,107.3,39.3z"/>
<path class="st0" d="M127.7,58.7c-0.2,0-0.5-0.1-0.8-0.3c-0.4-0.3-0.4-0.6-0.1-0.9c0.1-0.1,0.2-0.2,0.3-0.2c0.1,0,0.2-0.1,0.3-0.2
	c0.4-0.2,0.7-0.5,0.9-0.7c0.5-0.5,0.7-1.1,0.5-1.9c-0.1-0.2-12.4-35.2-12.8-35.8c-0.4-0.6-1-1.1-1.6-1.6c-0.3-0.2-0.5-0.3-0.6-0.5
	c-0.2-0.2-0.3-0.5-0.3-0.7c0-0.3,0.2-0.4,0.5-0.6c0.2,0,0.3-0.1,0.5-0.1c0.1,0,13.3,0.1,13.3,0.1c0.5,0,0.8,0.2,1,0.6
	c0.1,0.4,0.1,0.7-0.1,1.1c-0.1,0.1-0.2,0.2-0.3,0.2c-0.1,0.1-0.2,0.1-0.3,0.2c-0.7,0.7-0.9,1.5-0.6,2.4c0,0.1,8.9,25.7,9.2,26.4
	c0,0.1,0,0.2,0.1,0.2l0.2-0.2c0.1-0.1,9.5-27,9.7-27.5c0.1-0.5,0-0.9-0.2-1.2c-0.2-0.3-0.5-0.6-0.9-0.8c-0.4-0.4-0.4-0.8,0.1-1.2
	c0.1-0.1,0.2-0.1,0.3-0.2c0.1,0,0.3-0.1,0.3-0.1c0,0,8.6,0,8.8,0.1c0.6,0.1,0.9,0.5,0.8,1.1c0,0.4-0.1,0.6-0.4,0.6
	c-0.4,0-0.7,0.2-1.1,0.6c-0.4,0.3-0.7,0.7-1,1.2c-0.3,0.5-12.8,36.4-12.9,36.6c-0.2,0.6,0,1,0.4,1.3c0.3,0.2,0.6,0.4,0.9,0.6
	c0.1,0.1,0.2,0.2,0.2,0.2c0.1,0,0.1,0.1,0.2,0.2c0.1,0.2,0.2,0.4,0.1,0.6c-0.1,0.2-0.2,0.3-0.4,0.4c-0.6,0.1-1.2,0.2-1.8,0.2
	C140.2,58.9,129.2,58.9,127.7,58.7z"/>
<path class="st0" d="M160.8,20.4c-0.1-1.2-0.6-2.2-1.5-3c-0.4-0.3-0.6-0.5-0.7-0.7c-0.1-0.2-0.2-0.4-0.1-0.6
	c0.1-0.2,0.3-0.3,0.5-0.3c0.2,0,0.4-0.1,0.5-0.1c0.2,0,15.8,0,16.8-0.1c0.9,0,1.8-0.1,2.7-0.2c0.9-0.1,1.7-0.2,2.7-0.4
	c0.3-0.1,0.6-0.2,1-0.3c0.3-0.1,0.6-0.3,0.8-0.5c0-0.1,0.1-0.2,0.2-0.2c0.1,0,0.2-0.1,0.3-0.1c0.3,0,0.4,0.1,0.5,0.3
	c0.1,0.1,0.1,0.2,0.2,0.3c0,0.1,0.1,0.3,0.1,0.3c0.3,1.1,0.6,2.2,0.9,3.3c0.3,1.1,0.6,2.2,0.9,3.3c0,0.2,0.1,0.4,0.1,0.6
	c0,0.2,0,0.4,0,0.6c0,0.2-0.1,0.4-0.3,0.6c-0.1,0.2-0.3,0.3-0.5,0.3c-0.1,0-0.2,0-0.4-0.1c-0.1-0.1-0.2-0.2-0.3-0.3
	c-0.1-0.1-0.2-0.2-0.3-0.3c-0.4-0.5-0.8-0.9-1.3-1.2c-0.5-0.3-1-0.7-1.5-1c-0.8-0.5-1.6-0.8-2.4-1c-0.8-0.2-1.7-0.4-2.6-0.5
	c-0.5,0-1,0-1.6,0.1c-0.6,0.1-1.2,0.2-1.7,0.4c-0.5,0.2-1,0.5-1.3,0.9c-0.4,0.4-0.6,0.9-0.6,1.5c0,0.8,0,11.1-0.1,12.4
	c0,0.3,0,0.6,0.1,0.7c0,0,0,0.1,0.1,0.2c0,0,0.1,0,0.2-0.1c0.1-0.1,0.2-0.3,0.3-0.4c0.1-0.2,0.2-0.3,0.4-0.4
	c0.4-0.5,0.8-0.9,1.2-1.2c0.7-0.6,1.5-0.9,2.3-0.9c0.4,0,0.9,0.1,1.5,0.3c0.6,0.2,1.1,0.3,1.5,0.5c0.3,0.1,0.6,0.2,1,0.3
	c0.3,0.1,0.7,0.2,1,0.3c0.4,0.1,0.7,0.1,0.9,0.1c0.8,0,1.5-0.3,2.1-0.9c0.1-0.2,0.3-0.4,0.5-0.4c0.1-0.1,0.2-0.1,0.3-0.1
	c0.2,0,0.4,0.1,0.5,0.3c0.1,0.2,0.1,0.3,0.1,0.5c0,0.2,0,0.5,0,0.8s0,0.5-0.1,0.8c-0.2,0.6-0.4,1.2-0.8,1.8
	c-0.3,0.6-0.7,1.2-1.2,1.7c-0.5,0.5-1,0.9-1.6,1.2c-0.6,0.3-1.2,0.4-1.9,0.4c-0.5,0-1-0.1-1.5-0.3c-0.2-0.1-0.4-0.2-0.6-0.3
	c-0.2-0.1-0.4-0.3-0.6-0.3c-0.4-0.2-0.7-0.4-1.1-0.6c-0.4-0.2-0.8-0.3-1.2-0.4c-0.4-0.1-0.6-0.1-0.8-0.1c-1,0-1.8,0.5-2.4,1.5
	c-0.1,0.2-0.2,0.5-0.3,0.8c-0.1,0.3-0.2,0.6-0.2,0.8c-0.1,1.4-0.2,9.9-0.2,10.9c0,1,0.4,1.8,1.2,2.5c0.6,0.5,1.3,0.7,1.9,0.9
	c0.6,0.1,1.3,0.2,2.1,0.2c1.6-0.2,3.1-0.7,4.5-1.5c1.5-0.8,2.7-1.8,3.8-3c0.2-0.3,0.5-0.5,0.8-0.8c0.3-0.3,0.7-0.4,1-0.6
	c0.2-0.1,0.3-0.1,0.5-0.1c0.1,0,0.3,0.1,0.4,0.2c0.3,0.3,0.4,0.6,0.2,1c0,0.2-0.2,0.5-0.3,0.8c-0.6,1.2-1.2,2.4-1.8,3.7
	c-0.6,1.3-1.1,2.6-1.6,3.9c0,0.1-0.1,0.2-0.1,0.2c0,0,0,0.1-0.1,0.1c-0.2,0.5-0.5,0.8-0.8,0.8c-0.3,0-0.5-0.1-0.8-0.3
	c-0.5-0.4-1-0.6-1.6-0.8c-0.6-0.1-1.2-0.2-1.8-0.2c-1.4,0-20.2-0.3-20.2-0.3c-0.2,0-0.3-0.1-0.4-0.2c-0.1-0.2-0.1-0.3,0-0.4
	c0.1-0.2,0.3-0.4,0.6-0.7c1-1.1,1.5-2.3,1.5-3.9C160.6,51.1,160.8,21.1,160.8,20.4z"/>
<path class="st0" d="M219.8,32V21.9c0-0.9-0.1-1.8-0.3-2.5c-0.2-0.8-0.7-1.5-1.5-2.1c-0.1-0.1-0.2-0.2-0.2-0.2
	c-0.1,0-0.1-0.1-0.2-0.2c-0.1-0.1-0.1-0.4-0.1-0.7c0-0.2,0.2-0.3,0.5-0.3c0.1,0,0.2-0.1,0.4-0.1c0,0,9.4,0,10.1,0.1h0.5
	c0.8,0.2,1,0.7,0.4,1.3c-0.2,0.2-0.4,0.4-0.5,0.6c-0.2,0.1-0.3,0.3-0.4,0.6c-0.4,0.6-0.7,1.1-0.9,1.8c-0.2,0.6-0.3,1.3-0.3,1.9
	c-0.1,1.3-0.5,29-0.5,29.5c0,0.6,0,1.1,0.1,1.7c0,1.5,0.6,2.8,1.7,3.7c0.1,0.1,0.3,0.3,0.6,0.5c0.3,0.3,0.4,0.5,0.3,0.8
	c0,0.2-0.2,0.3-0.4,0.3h-0.2c-0.8,0-8.8,0.1-9.4,0c-0.5,0-0.9-0.1-1.1-0.2c-0.7-0.4-1.5-1-2.1-1.8c-0.7-0.8-1.3-1.6-1.9-2.4
	c-0.6-0.9-11.5-20.7-12.3-22.1c-0.1-0.1-0.2-0.3-0.2-0.4c-0.1-0.1-0.1-0.3-0.2-0.4c-0.1-0.1-0.2-0.1-0.2-0.1
	c-0.1,0.1-0.1,0.2-0.1,0.2c0,0.1-0.1,21.2-0.1,21.2c-0.1,2,0.6,3.6,2.1,4.7c0.3,0.3,0.5,0.5,0.6,0.6c0.1,0.1,0.1,0.3,0,0.4
	c-0.1,0.2-0.2,0.2-0.4,0.2c-0.3,0-0.6,0.1-0.9,0.1c-0.3,0-9.2,0-9.5,0s-0.6,0-0.8-0.1c-0.2,0-0.3-0.1-0.4-0.2
	c-0.1-0.1-0.1-0.3,0-0.4c0.1-0.3,0.3-0.5,0.5-0.6c0.5-0.5,0.9-1,1.1-1.6c0.2-0.6,0.4-1.2,0.4-1.8c0-0.2,0.3-26.4,0.3-31.4
	c0-1-0.1-1.9-0.3-2.7c-0.2-0.9-0.7-1.6-1.5-2.3c-0.2-0.1-0.4-0.2-0.4-0.3c-0.1-0.3-0.1-0.5-0.1-0.7c0-0.2,0.3-0.3,0.6-0.3
	c0,0,0.1-0.1,0.2-0.1c1.7,0,8.4,0.1,10,0.1c0.9,0,1.5,0.3,2,1c0.1,0.2,0.2,0.4,0.3,0.5c0.1,0.2,13.2,24,13.3,24.3
	c0.2,0.3,0.3,0.6,0.5,1c0.1,0.2,0.2,0.3,0.3,0.5c0.1,0.1,0.2,0.3,0.3,0.5c0,0,0.1,0.1,0.3,0.1l0.1-0.1v-1.4c0-1.1,0-2.2,0-3.3
	c0-1.1,0-2.2,0-3.2V32z"/>
<path class="st0" d="M244.6,22.4c0-0.5,0-0.8-0.1-1c0-0.4-0.3-0.7-0.9-0.8c-0.1,0-0.3-0.1-0.3-0.1c-1,0-1.8,0.1-2.4,0.1
	c-0.6,0-1.4,0.1-2.4,0.2c-1.1,0.1-2,0.3-2.8,0.7c-0.8,0.3-1.5,1-2.2,1.8c-0.1,0.2-0.3,0.4-0.4,0.7c-0.1,0.2-0.3,0.4-0.4,0.6
	c-0.2,0.3-0.3,0.4-0.5,0.5c-0.1,0-0.2,0.1-0.3,0.1c-0.5,0-0.7-0.2-0.8-0.7c0-0.2,0-0.4,0-0.6c0-0.2,0-0.4,0.1-0.6
	c0.3-1.3,0.6-2.7,1-4.2c0.3-1.5,0.6-2.9,1-4.1c0-0.1,0.1-0.1,0.1-0.1c0,0,0,0,0,0c0.1-0.4,0.3-0.6,0.5-0.6c0.1,0,0.3,0.1,0.5,0.2
	c0.6,0.5,1.2,0.8,1.8,0.8c0.7,0,3.9,0.3,4.6,0.3c0.7,0,1.5,0.1,2.6,0.1h15.7c0.4,0,0.9,0,1.7-0.1c0.7,0,1.5-0.1,2.3-0.2
	c0.8-0.1,1.5-0.2,2.2-0.4c0.7-0.2,1.2-0.4,1.5-0.6c0.1-0.1,0.2-0.1,0.3-0.1c0.2,0,0.4,0.1,0.4,0.3c0.1,0.2,0.2,0.4,0.2,0.6
	c0.1,0.1,0.1,0.3,0.2,0.6c0.2,0.6,0.4,1.4,0.5,2.3c0.2,0.9,0.3,1.7,0.5,2.3c0.1,0.4,0.3,0.8,0.4,1.2c0.1,0.4,0.3,0.8,0.4,1.2
	c0.1,0.5,0.1,0.8,0.1,1.1c0,0.4-0.2,0.6-0.6,0.8c-0.1,0-0.2,0.1-0.3,0.1c-0.1,0-0.3,0-0.3-0.1c-0.1-0.1-0.3-0.3-0.4-0.4
	c-0.1-0.1-0.3-0.2-0.4-0.4c-0.8-1-1.7-1.7-2.8-2.2c-1.1-0.5-2.2-0.9-3.4-1.1c-1.4-0.1-2.9-0.2-4.4-0.2c-0.4,0-0.7,0.2-0.9,0.6
	c-0.2,0.3-0.3,0.7-0.4,1.1c-0.1,0.9-0.6,30.6-0.6,30.6c0,0.8,0.1,1.5,0.2,2.1c0.1,0.6,0.5,1.2,1.2,1.7c0.1,0.1,0.2,0.2,0.3,0.3
	c0.1,0.1,0.3,0.2,0.3,0.4c0.2,0.2,0.3,0.5,0.1,0.8c-0.1,0.3-0.4,0.5-0.7,0.5c-1.1,0-13.1,0-13.3,0c-0.3,0-0.6,0-0.9-0.1
	c-0.2-0.1-0.3-0.2-0.3-0.4c0-0.3,0.4-0.8,0.6-1c1-1.1,1.5-2.4,1.5-3.9C244.3,50.4,244.6,22.6,244.6,22.4z"/>
<path class="st0" d="M273.6,23c0-0.7-0.1-1.5-0.1-2.3c0-1.5-0.6-2.7-1.9-3.6c-0.1-0.1-0.2-0.2-0.3-0.3c-0.1-0.1-0.2-0.2-0.3-0.3
	c-0.1-0.1-0.1-0.3,0-0.4c0.1-0.2,0.2-0.2,0.4-0.2c0.1,0,16.4-0.1,16.4-0.1c0.3,0,0.5,0.1,0.7,0.3c0.1,0.2,0.1,0.5-0.1,0.7
	c-0.1,0.2-0.3,0.4-0.6,0.7c-2,1.8-2.9,4.1-2.8,6.9c0.2,4.8,0,9.6,0,14.4c0,3.3-0.2,6.8,0.6,10.1c0.7,2.9,2.4,5.9,5.5,6.3
	c3.8,0.6,6.8-2.2,7.9-5.6c0.9-2.9,0.9-5.9,0.9-8.9c0-2.6,0-5.2,0.1-7.9c0-3.4,0.1-6.7,0.1-10.1c0-1-0.2-2-0.5-3
	c-0.3-1-0.9-1.8-1.8-2.5c-0.2-0.2-0.4-0.4-0.5-0.6c-0.1-0.2-0.2-0.4-0.1-0.6c0.1-0.2,0.3-0.3,0.5-0.3h12.6c0.3,0,0.5,0.1,0.6,0.3
	c0,0.2-0.1,0.5-0.3,0.9c-0.7,0.7-1.2,1.4-1.5,2.1c-0.3,0.7-0.5,1.5-0.6,2.6c-0.1,2.3-0.4,21.7-0.4,22.4c0,0.7-0.1,1.5-0.2,2.2
	c-0.1,1.3-0.4,2.5-0.9,3.8c-2.8,6.4-9.1,9.4-15.9,9.4c-5,0-10.2-1.7-13.7-5.5c-1.1-1.2-2-2.7-2.7-4.4c-0.4-1.1-0.7-2.1-0.9-3.2
	c-0.2-1.1-0.4-8.9-0.3-10c0-0.7,0.1-6.6,0.1-7.7C273.6,27.4,273.6,23.7,273.6,23z"/>
<path class="st0" d="M350.5,54.8c-0.4-0.3-0.6-0.5-0.8-0.6c-2.7-1.6-4.7-3.6-6-6c-1.3-2.4-2.3-5.1-3.2-8c-0.1-0.6,0-1,0.6-1.2
	c0.1-0.1,0.2-0.1,0.3-0.2c0.1,0,0.3-0.1,0.3-0.2c1.6-0.8,3-2,4.1-3.6c2.8-4.1,4.1-9.3,1.2-13.7c-2.1-3.2-5.4-4.7-9.1-5.2
	c-3.9-0.6-7.9-0.5-11.8-0.4c-1.9,0-3.8,0.1-5.7,0.1c-1,0-2,0-3,0c-0.9,0-2.1-0.2-3,0c-0.3,0.1-0.5,0.2-0.6,0.3c0,0.1,0,0.4,0.1,0.7
	c0,0.1,0.1,0.2,0.3,0.3c0.6,0.6,1.1,1.2,1.4,1.9c0.3,0.7,0.4,1.5,0.4,2.3c0,4.7-0.3,31.3-0.3,32c0,1.5-0.5,2.8-1.6,3.8
	c-0.2,0.2-0.3,0.3-0.4,0.5c0,0.1-0.1,0.3-0.1,0.6c0,0,0.1,0.1,0.2,0.1c0.1,0,0.1,0.1,0.2,0.1h0.1h3.7c3.6-0.1,7.2-0.2,10.8-0.2
	c0.3,0,0.5-0.1,0.6-0.3c0.1-0.3,0-0.5-0.2-0.6c-0.2-0.2-0.4-0.4-0.6-0.5c-0.4-0.3-0.7-0.7-1-1c-0.3-0.4-0.5-0.8-0.6-1.3
	c-0.2-0.9-0.3-10.1-0.3-11.6v-0.5c0-0.5,0.3-0.7,0.7-0.8c0.2,0,0.4-0.1,0.6-0.1c0.2,0,0.4,0,0.6,0c0.5,0,0.9,0,1.1,0.1
	c0.2,0.1,0.5,0.3,0.8,0.7c0.1,0.1,0.2,0.3,0.2,0.4c0.1,0.2,0.1,0.3,0.2,0.5c0.5,1.3,1.1,2.9,1.8,4.7c0.7,1.8,1.6,3.6,2.6,5.2
	c1,1.7,2.2,3.1,3.6,4.2c1.3,1.2,2.8,1.7,4.5,1.7c1.1,0,2.1-0.2,3.2-0.7C347.5,58.1,351.9,55.8,350.5,54.8z M336.8,34.1
	c-1.1,1.4-2.6,2.4-4.2,3c-1.4,0.5-3.6,1.4-5.2,1.2c-0.2,0-0.3-0.1-0.4-0.2c-0.1-0.1-0.1-0.3-0.1-0.5c-0.2-3.5-0.1-7.1,0.1-10.6
	c0.1-1.7,0.1-3.5,0.2-5.2c0.1-1,0.1-2.6,1-3.2c0.2-0.1,0.4-0.2,0.7-0.2c2.3-0.4,4.9,0.1,6.8,1.4C340.5,22.9,340.1,30.1,336.8,34.1z"
	/>
<path class="st0" d="M178.7,82.5c0.3,0,0.5,0,0.7,0.1c0.4,0.1,0.8,0.4,0.7,0.8c0,0.1-0.1,0.3-0.2,0.4c-0.9,1-1.6,1.8-1.9,3.1
	c-0.2,1.1-0.3,2.2-0.3,3.4c0,0.8-0.3,20.8-0.3,29c-0.1,2,0.6,3.5,2.1,4.6c0,0,0.1,0.1,0.1,0.1c0,0,0.1,0.1,0.1,0.2
	c0.2,0.1,0.2,0.4,0.1,0.7c0,0.2-0.2,0.3-0.5,0.3l-14.6,0.2c-0.3,0-0.4-0.1-0.5-0.3c0-0.2,0-0.4,0.1-0.6c0.1-0.1,0.2-0.2,0.2-0.3
	c0.1-0.1,0.1-0.2,0.2-0.3c0.9-1.1,1.4-2.3,1.5-3.7l0.2-32.6c-0.1-0.7-0.3-1.3-0.5-1.9c-0.3-0.6-0.7-1.1-1.3-1.5
	c-0.3-0.2-0.6-0.5-0.6-0.9c0-0.2,0.3-0.4,0.5-0.4C165.9,82.4,177.6,82.5,178.7,82.5z"/>
<path class="st0" d="M218.2,102.9c-1.2-0.9-2.5-1.6-4-1.9c-0.6-0.1-1.4,0-1.9-0.5c-0.3-0.3,1-0.8,1.1-0.8c3.9-1.7,7.6-7.5,5.3-11.7
	c-0.8-1.5-2.2-2.8-3.7-3.6c-4-2.3-8.8-1.7-13.1-1.7c-4.8,0-9.6,0-14.4,0c-0.6,0-1.1,0-1.7,0c-0.2,0-0.4,0.2-0.5,0.3
	c-0.1,0.2-0.1,0.4,0.1,0.6c0.1,0.1,0.2,0.3,0.3,0.4c0.1,0.1,0.3,0.2,0.3,0.3c0.9,0.9,1.4,1.9,1.5,3.1c0,0-0.3,32.8-0.3,33.3
	c0,1.2-0.5,2.1-1.2,3c-0.1,0.1-0.2,0.2-0.2,0.3c-0.1,0.1-0.1,0.2-0.2,0.3c-0.1,0-0.2,0.2-0.3,0.4c-0.1,0.1-0.1,0.3,0,0.4
	c0.1,0.1,0.2,0.2,0.4,0.2h1c5,0,10,0,15-0.1c4.6-0.1,9.7,0.4,13.8-1.9c0.2-0.1,0.4-0.2,0.6-0.3c2.2-1.4,4-3.5,5-5.9
	c0.7-1.5,1.1-3.2,1.2-5.1C222.5,108.4,220.9,105,218.2,102.9z M198.8,88.1c0-0.1,0-0.2,0-0.4c0.5-1.8,2.5-1.7,4-1.7
	c1.7,0,3.6,0.2,4.9,1.5c1.7,1.7,1.9,4,1.1,6.1c-0.7,1.7-1.8,3.5-3.1,4.7c-1.5,1.5-3.4,2.4-5.8,2.7h-0.8c-0.4,0-0.6-0.2-0.6-0.5
	c0-1.9-0.1-3.8-0.1-5.7C198.5,92.7,198.4,90.2,198.8,88.1z M211.3,115.8c-0.9,3-2.7,5.6-5.8,6c-1.8,0.4-3.6,0.4-5.5,0.3
	c-0.6,0-1-0.2-1.2-0.4c-0.7-0.7-0.6-2-0.6-2.9c0-1.3,0.1-2.6,0.1-3.9c0-3.3,0.1-6.5,0.1-9.8c0-0.4,0.2-0.7,0.6-0.8
	c1.7-0.5,3.5-0.9,5.3-1c3.9,0,6.3,1.9,7.3,5.7C212,110.9,212,113.5,211.3,115.8z"/>
<path class="st0" d="M306.4,123.7c-0.1,0-0.2-0.1-0.2-0.1c-1-0.4-1.7-1.4-2.2-2.3c-1.4-2.4-11.7-33.6-12.1-34.6
	c-0.2-0.6-0.7-1.5-0.4-2.1c0.3-0.7,1-0.8,1.5-1.3c0.4-0.4,0.5-1.2-0.2-1.2c-0.8-0.1-13.5-0.1-14.2,0c-0.1,0-0.2,0.1-0.3,0.1
	c-0.1,0-0.2,0-0.3,0.1c-0.3,0.1-0.4,0.3-0.4,0.5c0,0.3,0.1,0.5,0.3,0.7c0.1,0.1,0.2,0.2,0.3,0.2c0.1,0.1,0.3,0.1,0.3,0.2
	c0.8,0.6,1.2,1.2,1,2.2c-0.5,2.7-12.6,35.8-13,36.4c-0.4,0.6-1,1.1-1.6,1.5c-0.1,0-0.3,0.1-0.4,0.4c-0.1,0.3-0.2,0.4-0.2,0.5
	c0.1,0.4,0.3,0.6,0.7,0.7c1.2,0.3,12.8,0,13.6-0.1c0.5,0,0.8-0.2,0.9-0.5c0.2-0.3,0.1-0.7-0.2-1.1c-0.1-0.1-0.3-0.3-0.5-0.6
	c-0.7-0.6-0.9-1.4-0.7-2.3c0-0.2,2.2-6.4,2.2-6.4c0.1-0.5,0.4-0.7,0.9-0.8c1.1,0,13.1-0.1,13.1-0.1c0.6,0,1.1,0.3,1.2,0.9
	c0.2,0.7,1.8,6.5,1.9,7c0.1,0.8-0.1,1.5-0.8,2l-0.4,0.4c-0.2,0.2-0.3,0.5-0.2,0.8c0.1,0.3,0.2,0.5,0.5,0.6c0.2,0.1,8.1,0.1,8.4,0.1
	c0.4,0,0.8-0.1,1.2-0.2c0.6-0.2,0.8-1,0.2-1.4C306.6,123.8,306.5,123.7,306.4,123.7z M293.6,108.9c0,0.1-0.2,0.1-0.4,0.1
	c-0.5,0-9.4,0.3-10.2,0.2c-0.4,0-0.6-0.2-0.4-0.6c0.1-0.4,5.2-15,5.3-15.3l0.2-0.2c0,0,0,0.1,0.1,0.1c0,0,0.1,0,0.1,0.1
	c0.1,0.2,5.2,14.6,5.3,14.8c0,0.1,0.1,0.3,0.1,0.4C293.7,108.7,293.7,108.8,293.6,108.9z"/>
<path class="st0" d="M355.4,21.1c-0.1-1.2-0.6-2.2-1.5-3c-0.4-0.3-0.6-0.5-0.7-0.7c-0.1-0.2-0.2-0.4-0.1-0.6
	c0.1-0.2,0.3-0.3,0.5-0.3c0.2,0,0.4-0.1,0.5-0.1c3.9,0,7.9,0.1,11.8,0.1c2,0,3.9-0.1,5.9-0.2c1.8-0.1,3.7-0.2,5.4-0.8
	c0.3-0.1,0.6-0.3,0.8-0.5c0-0.1,0.1-0.2,0.2-0.2c0.1,0,0.2-0.1,0.3-0.1c0.3,0,0.4,0.1,0.5,0.3c0.1,0.1,0.1,0.2,0.2,0.3
	c0,0.1,0.1,0.3,0.1,0.3c0.3,1.1,0.6,2.2,0.9,3.3c0.3,1.3,1.6,3.8,0.8,5.1c-0.1,0.2-0.3,0.4-0.6,0.4c-0.7,0-1.9-1.6-2.5-2.1
	c-0.9-0.7-2-1.3-3.1-1.7c-1.8-0.7-3.9-0.9-5.8-0.4c-1.3,0.3-2.6,1.1-2.6,2.6c0,0.8,0,11.1-0.1,12.4c0,0.3,0,0.6,0.1,0.7
	c0,0,0,0.1,0.1,0.2c0,0,0.1,0,0.2-0.1c0.1-0.1,0.2-0.3,0.3-0.4c0.1-0.2,0.2-0.3,0.4-0.4c0.4-0.5,0.8-0.9,1.2-1.2
	c1-0.9,2.3-1,3.6-0.7c1,0.2,1.9,0.7,2.8,1c0.8,0.2,1.8,0.5,2.6,0.3c0.7-0.2,1.2-0.9,1.8-1.2c0.2-0.1,0.4-0.1,0.6,0
	c0.2,0.1,0.3,0.4,0.4,0.7c0.2,1.2-0.2,2.3-0.8,3.4c-0.3,0.6-0.7,1.2-1.2,1.7c-1.4,1.4-3.4,2-5.3,1.1c-1-0.5-2-1.2-3.1-1.6
	c-1.4-0.4-2.7,0.1-3.4,1.3c-0.1,0.2-0.2,0.5-0.3,0.8c-0.1,0.3-0.2,0.6-0.2,0.8c-0.1,1.4-0.2,9.9-0.2,10.9c0,4.3,6.1,3.8,8.7,2.6
	c1.3-0.6,2.5-1.5,3.6-2.4c1-0.9,1.9-2.1,3.1-2.6c0.2-0.1,0.4-0.1,0.6-0.1c0.3,0.1,0.6,0.4,0.6,0.7c0.1,0.7-0.6,1.6-0.9,2.2
	c-0.5,0.9-0.9,1.8-1.3,2.7c-0.6,1.4-1.1,2.8-1.7,4.2c-0.1,0.3-0.3,0.6-0.6,0.7c-0.4,0.1-0.8-0.1-1.1-0.4c-2-1.2-4.7-0.9-7-0.9
	c-2.6,0-5.3-0.1-7.9-0.1c-2.9,0-5.7-0.1-8.6-0.1c-0.2,0-0.3-0.1-0.4-0.2c-0.1-0.2-0.1-0.3,0-0.4c0.1-0.2,0.3-0.4,0.6-0.7
	c1-1.1,1.5-2.3,1.5-3.9C355.2,51.7,355.4,21.7,355.4,21.1z"/>
<path class="st0" d="M261.6,121.4c-0.4-0.3-0.6-0.5-0.8-0.6c-2.7-1.6-4.7-3.6-6-6c-1.3-2.4-2.3-5.1-3.2-8c-0.1-0.6,0-1,0.6-1.2
	c0.1-0.1,0.2-0.1,0.3-0.2c0.1,0,0.3-0.1,0.3-0.2c1.6-0.8,3-2,4.1-3.6c2.8-4.1,4.1-9.3,1.2-13.7c-2.1-3.2-5.4-4.7-9.1-5.2
	c-3.9-0.6-7.9-0.5-11.8-0.4c-1.9,0-3.8,0.1-5.7,0.1c-1,0-2,0-3,0c-0.9,0-2.1-0.2-3,0c-0.3,0.1-0.5,0.2-0.6,0.3c0,0.1,0,0.4,0.1,0.7
	c0,0.1,0.1,0.2,0.3,0.3c0.6,0.6,1.1,1.2,1.4,1.9c0.3,0.7,0.4,1.5,0.4,2.3c0,4.7-0.3,31.3-0.3,32c0,1.5-0.5,2.8-1.6,3.8
	c-0.2,0.2-0.3,0.3-0.4,0.5c0,0.1-0.1,0.3-0.1,0.6c0,0,0.1,0.1,0.2,0.1c0.1,0,0.1,0.1,0.2,0.1h0.1h3.7c3.6-0.1,7.2-0.2,10.8-0.2
	c0.3,0,0.5-0.1,0.6-0.3c0.1-0.3,0-0.5-0.2-0.6c-0.2-0.2-0.4-0.4-0.6-0.5c-0.4-0.3-0.7-0.7-1-1c-0.3-0.4-0.5-0.8-0.6-1.3
	c-0.2-0.9-0.3-10.1-0.3-11.6v-0.5c0-0.5,0.3-0.7,0.7-0.8c0.2,0,0.4-0.1,0.6-0.1c0.2,0,0.4,0,0.6,0c0.5,0,0.9,0,1.1,0.1
	c0.2,0.1,0.5,0.3,0.8,0.7c0.1,0.1,0.2,0.3,0.2,0.4c0.1,0.2,0.1,0.3,0.2,0.5c0.5,1.3,1.1,2.9,1.8,4.7c0.7,1.8,1.6,3.6,2.6,5.2
	c1,1.7,2.2,3.1,3.6,4.2c1.3,1.2,2.8,1.7,4.5,1.7c1.1,0,2.1-0.2,3.2-0.7C258.7,124.7,263,122.4,261.6,121.4z M248,100.7
	c-1.1,1.4-2.6,2.4-4.2,3c-1.4,0.5-3.6,1.4-5.2,1.2c-0.2,0-0.3-0.1-0.4-0.2c-0.1-0.1-0.1-0.3-0.1-0.5c-0.2-3.5-0.1-7.1,0.1-10.6
	c0.1-1.7,0.1-3.5,0.2-5.2c0.1-1,0.1-2.6,1-3.2c0.2-0.1,0.4-0.2,0.7-0.2c2.3-0.4,4.9,0.1,6.8,1.4C251.7,89.5,251.2,96.7,248,100.7z"
	/>
<path class="st0" d="M346.2,121.4c-0.4-0.3-0.6-0.5-0.8-0.6c-2.7-1.6-4.7-3.6-6-6c-1.3-2.4-2.3-5.1-3.2-8c-0.1-0.6,0-1,0.6-1.2
	c0.1-0.1,0.2-0.1,0.3-0.2c0.1,0,0.3-0.1,0.3-0.2c1.6-0.8,3-2,4.1-3.6c2.8-4.1,4.1-9.3,1.2-13.7c-2.1-3.2-5.4-4.7-9.1-5.2
	c-3.9-0.6-7.9-0.5-11.8-0.4c-1.9,0-3.8,0.1-5.7,0.1c-1,0-2,0-3,0c-0.9,0-2.1-0.2-3,0c-0.3,0.1-0.5,0.2-0.6,0.3c0,0.1,0,0.4,0.1,0.7
	c0,0.1,0.1,0.2,0.3,0.3c0.6,0.6,1.1,1.2,1.4,1.9c0.3,0.7,0.4,1.5,0.4,2.3c0,4.7-0.3,31.3-0.3,32c0,1.5-0.5,2.8-1.6,3.8
	c-0.2,0.2-0.3,0.3-0.4,0.5c0,0.1-0.1,0.3-0.1,0.6c0,0,0.1,0.1,0.2,0.1c0.1,0,0.1,0.1,0.2,0.1h0.1h3.7c3.6-0.1,7.2-0.2,10.8-0.2
	c0.3,0,0.5-0.1,0.6-0.3c0.1-0.3,0-0.5-0.2-0.6c-0.2-0.2-0.4-0.4-0.6-0.5c-0.4-0.3-0.7-0.7-1-1c-0.3-0.4-0.5-0.8-0.6-1.3
	c-0.2-0.9-0.3-10.1-0.3-11.6v-0.5c0-0.5,0.3-0.7,0.7-0.8c0.2,0,0.4-0.1,0.6-0.1c0.2,0,0.4,0,0.6,0c0.5,0,0.9,0,1.1,0.1
	c0.2,0.1,0.5,0.3,0.8,0.7c0.1,0.1,0.2,0.3,0.2,0.4c0.1,0.2,0.1,0.3,0.2,0.5c0.5,1.3,1.1,2.9,1.8,4.7c0.7,1.8,1.6,3.6,2.6,5.2
	c1,1.7,2.2,3.1,3.6,4.2c1.3,1.2,2.8,1.7,4.5,1.7c1.1,0,2.1-0.2,3.2-0.7C343.3,124.7,347.6,122.4,346.2,121.4z M332.6,100.7
	c-1.1,1.4-2.6,2.4-4.2,3c-1.4,0.5-3.6,1.4-5.2,1.2c-0.2,0-0.3-0.1-0.4-0.2c-0.1-0.1-0.1-0.3-0.1-0.5c-0.2-3.5-0.1-7.1,0.1-10.6
	c0.1-1.7,0.1-3.5,0.2-5.2c0.1-1,0.1-2.6,1-3.2c0.2-0.1,0.4-0.2,0.7-0.2c2.3-0.4,4.9,0.1,6.8,1.4C336.3,89.5,335.8,96.7,332.6,100.7z
	"/>
<path class="st0" d="M356.1,125.2c-0.3,0-0.6,0-0.8-0.1c-0.1,0-0.2-0.1-0.2-0.2c0-0.1,0-0.2,0-0.3c0.2-0.2,0.3-0.4,0.4-0.5
	c1.9-1.4,2.1-3.4,2.4-5.6c0.5-4.5,0.2-7.2,0.2-11.8c0-0.8-0.2-1.6-0.7-2.3c-1.2-1.7-7.9-15.1-8.6-16.2c-0.7-1.1-1.5-2.2-2.3-3.2
	c-0.5-0.6-1.2-1-1.9-1.3c-0.4-0.2-0.6-0.4-0.6-0.7c0-0.3,0.3-0.5,0.9-0.6h0.6h13h0.3h0.6c0.4,0,0.7,0.3,1,0.7
	c0.2,0.4,0.1,0.8-0.3,1.2l-0.4,0.4c-0.6,0.8-0.7,1.7-0.3,2.5c0.6,1.2,4.4,10.6,4.6,11.2c0.2,0.3,0.3,0.5,0.5,0.6
	c0.2,0.1,0.3,0.1,0.3,0.1c0.1,0,0.2,0,0.4-0.1c0.1-0.1,0.2-0.2,0.3-0.3c0.1-0.1,0.2-0.2,0.3-0.4c1.2-1.7,5.6-10.5,6.7-12.3
	c0.3-0.6,0.3-1.2,0.1-1.9c-0.1-0.2-0.2-0.4-0.3-0.7c-0.1-0.5,0-0.8,0.5-1c0.1,0,0.3-0.1,0.4-0.1c0.2,0,0.3,0,0.4,0h6.7h1.5
	c0.4,0,0.7,0.2,0.8,0.5c0,0.2,0.1,0.4,0.1,0.7c0,0.2-0.1,0.4-0.3,0.7c-0.1,0.1-0.2,0.1-0.3,0.2c-0.1,0-0.2,0.1-0.3,0.2
	c-1.1,0.7-2.2,1.7-3.4,2.9c-1.2,1.2-7.8,13.5-8.4,14.7c-0.3,0.5-0.4,1-0.4,1.5c0,0.4,0,0.8,0,1.2c0,0.4-0.2,10.4-0.2,10.4
	c0,2.9-0.4,5.6,1.5,8c0.1,0.1,0.2,0.3,0.3,0.4c0.1,0.1,0.2,0.2,0.2,0.4c0.2,0.5,0,0.9-0.6,1C370.6,125.2,356.1,125.2,356.1,125.2z"
	/>
<path class="st0" d="M71,76.8c-0.7-1.1-1.7-2-2.1-3.3c-0.3-1-0.5-2-0.5-3.1c-0.1-0.2-0.1-60,0-61c0.2-2,0.9-3.5,2.2-4.6
	c0.2-0.2,0.3-0.3,0.3-0.3c0.2-0.3,0.3-0.6,0.3-0.8c0-0.2-0.1-0.3-0.2-0.4c-0.1,0-0.3-0.1-0.5-0.1H52.8c-0.3,0-0.5,0.1-0.6,0.3
	c-0.3,0.7-0.3,1.3,0.1,1.9c0.1,0.2,0.3,0.4,0.6,0.7c0.5,0.6,1.8,1.7,1,2.7C49.6,15.4,7.8,73.5,6.5,74.3c-0.2,0.1-0.2,0.2-0.5,0.2
	c-0.4,0.1-0.9-0.3-1.2-0.5c-1-0.8-1.3-0.6-1.7-0.4C2.3,74,2.8,75.2,3,75.7c1.1,1.8,5,7.6,6.7,11.5c0.3,0.4,0.5,0.9,1,0.6
	c0.5-0.3,1-0.7,1.5-1.3c4.4-4.9,5.9-6.9,7.9-9.7c1.1-1.5,18.1-25.6,18.2-25.6c0.4-0.7,0.7-1.1,2-1l19.5,0.2c0.2,0,0.9-0.3,0.8,1
	c0,2.5,0.1,5.5,0.1,8.2c-0.1,6.5-0.1,11.1-0.2,11.1c0,1.1-0.2,2.2-0.5,3.1c-0.4,1.3-1.3,1.9-2.1,3.1c-0.1,0.1-0.1,0.2-0.1,0.3
	c0,0.2,0.1,0.4,0.3,0.5c0.2,0.1,0.4,0.1,0.6,0.1c0.6,0,9.1-0.2,11.5-0.2c0.2,0,0.4,0,0.6-0.1c0.2-0.1,0.3-0.3,0.3-0.5
	C71.1,77,71.1,76.9,71,76.8z M59.9,43.3L45,43.4c-0.5-0.2-0.6-0.5-0.2-1.1c0.4-0.6,14.5-19.5,15.7-21.1c0,1.1,0,2.1,0,3.2
	c0,6,0,18.3,0,18.5C60.5,43.3,60.3,43.3,59.9,43.3z"/>
<g>
	<path class="st0" d="M129.5,161.9c1,1,1.8,2.1,2.6,3.2c1.9,2.7,5.4,7.8,5.8,9.3c0.2,0.5-0.4,1-0.9,0.9c-1.5-0.5-6.6-3.9-9.3-5.8
		c-1.1-0.8-2.2-1.7-3.2-2.6l-65.8-65.2l5.6-5.6L129.5,161.9z"/>
	<g>
		<path class="st0" d="M62.6,94.3l-1.3-0.8c0,0,5.6-4,9.8-3.5l-0.9-3.6c0,0-7,2.4-11,6.5c-1.8,1.8-1.8,1.8-3.5,3.5
			c-4.1,4.1-6.5,11-6.5,11l3.6,0.9c-0.5-4.2,3.5-9.8,3.5-9.8l0.8,1.3L62.6,94.3z"/>
	</g>
	<g>
		<polygon class="st0" points="57.4,91 42.5,77.2 39.9,79.8 53.7,94.6 		"/>
	</g>
	<g>
		<path class="st0" d="M41.2,71.1c1.2,1.2,0.6,3.9-1.4,5.9c-2,2-4.7,2.7-5.9,1.4c0,0,1.1-2.6,2.9-4.4C38.6,72.2,41.2,71.1,41.2,71.1
			z"/>
	</g>
	<g>
		<circle class="st0" cx="34.8" cy="72.1" r="1.1"/>
	</g>
	<g>
		<path class="st0" d="M90.4,156.8c-5.7,3.9-12.6,9.7-12.6,9.7l-33.1-33.1c-2.7,2.2-4.5,3.8-4.5,3.8l33.6,33.6c0,0,8.1-7,14.6-11.8
			c4.2-3.1,11-7.3,14.2-9.3l-0.1-0.1C99.5,151.2,93.9,154.4,90.4,156.8z"/>
	</g>
	<g>
		<path class="st0" d="M96.2,82l33.1,33.1c0,0-5.8,6.9-9.7,12.6c-2.4,3.5-5.6,9.2-7.2,12.1l0.1,0.1c2-3.2,6.2-10,9.3-14.2
			c4.9-6.6,11.8-14.6,11.8-14.6L100,77.4C100,77.4,98.4,79.3,96.2,82z"/>
	</g>
	<g>
		<g>
			<path class="st0" d="M66.4,112.6c-2.5,1.5-6.2,3.8-10.4,6.4c-6.2,3.9-12.8,9.5-12.8,9.5L78,163.3c0,0,6.9-5.8,12.6-9.7
				c3-2.1,7.6-4.7,10.7-6.5L66.4,112.6z M47.1,128.9l1.8-2c0.9,0.8,1.7,1.5,2.7,2.1l-1.5,2.2C49.1,130.6,48.1,129.8,47.1,128.9z
				 M53.4,133.2l1.2-2.4c1,0.5,2.1,0.9,3.1,1.2l-0.8,2.6C55.7,134.2,54.5,133.7,53.4,133.2z M64.6,135.2c-1.3,0.2-2.7,0.3-4,0.1
				l0.3-2.7c1.1,0.1,2.1,0.1,3.2-0.1L64.6,135.2z M71.6,131.9c-1.1,0.8-2.2,1.5-3.3,2.1l-1.2-2.4c0.9-0.5,1.9-1.1,2.8-1.8
				L71.6,131.9z M74.4,129.3l-2-1.8c0.7-0.8,1.5-1.7,2.2-2.7l2.2,1.6C76,127.4,75.2,128.4,74.4,129.3z"/>
		</g>
	</g>
	<g>
		<g>
			<path class="st0" d="M81.7,93.3c-2.7,4.2-4.9,7.9-6.4,10.4l34.6,34.9c1.7-3.1,4.4-7.7,6.5-10.7c3.9-5.7,9.7-12.6,9.7-12.6
				L91.3,80.5C91.3,80.5,85.7,87.1,81.7,93.3z M101.7,96.9c0.8,0.3,1.5,0.6,2.2,1l-1.4,2.3c-0.6-0.3-1.2-0.6-1.8-0.8
				c-0.4-0.1-0.8-0.3-1.2-0.4l0.7-2.6C100.8,96.6,101.2,96.7,101.7,96.9z M92.5,96.4c1.2-0.4,2.6-0.6,4-0.5l-0.1,2.7
				c-1.1,0-2.1,0.1-3.1,0.4L92.5,96.4z M88.9,98.2l1.6,2.2c-0.8,0.6-1.6,1.4-2.3,2.3l-2.1-1.7C87,99.9,87.9,99,88.9,98.2z
				 M82.4,107.5c0.5-1.2,1.1-2.4,1.6-3.4l2.4,1.3c-0.5,0.9-1,2-1.5,3.1L82.4,107.5z M114.8,114.2l-4.6,3.5l3.5,4.6l-2.1,1.6
				l-3.5-4.6l-4.6,3.5l-1.6-2.1l4.6-3.5l-3.5-4.6l2.1-1.6l3.5,4.6l4.6-3.5L114.8,114.2z M110.8,111.4l-2.7-0.2
				c0.1-1.1,0-2.1-0.2-3.2l2.6-0.5C110.8,108.7,110.9,110,110.8,111.4z M109.3,103.7l-2.4,1.2c-0.5-1-1.1-1.9-1.8-2.6l2-1.8
				C107.9,101.4,108.7,102.5,109.3,103.7z"/>
		</g>
	</g>
</g>
</svg>
