<?xml version="1.0" encoding="utf-8"?>
<!-- Generator: Adobe Illustrator 25.2.1, SVG Export Plug-In . SVG Version: 6.00 Build 0)  -->
<svg version="1.1" id="Layer_1" xmlns="http://www.w3.org/2000/svg" xmlns:xlink="http://www.w3.org/1999/xlink" x="0px" y="0px"
	 viewBox="0 0 432 438.1" style="enable-background:new 0 0 432 438.1;" xml:space="preserve">
<style type="text/css">
	.st0{fill:#FFFFFF;}
</style>
<g>
	<path class="st0" d="M388.4,372.1c3.8,3.9,7.2,8.2,10.3,12.7c7.5,10.8,21.1,30.8,23,36.6c0.6,2-1.4,4-3.4,3.4
		c-5.8-1.8-25.9-15.5-36.6-23c-4.5-3.1-8.7-6.6-12.7-10.3L109.1,134.1l22-22L388.4,372.1z"/>
	<g>
		<path class="st0" d="M124.1,105.2L119,102c0,0,22.1-15.6,38.6-13.8l-3.6-14c0,0-27.5,9.5-43.5,25.5c-7,7-7,7-13.9,13.9
			c-16,16-25.5,43.5-25.5,43.5l14,3.6C83.3,144.2,99,122.1,99,122.1l3.2,5.1L124.1,105.2z"/>
	</g>
	<g>
		<polygon class="st0" points="103.6,92.3 45,37.7 34.7,48 89.3,106.6 		"/>
	</g>
	<g>
		<path class="st0" d="M39.8,13.9c4.9,4.9,2.3,15.3-5.7,23.3s-18.4,10.6-23.3,5.7c0,0,4.3-10.2,11.6-17.4S39.8,13.9,39.8,13.9z"/>
	</g>
	<g>
		<circle class="st0" cx="14.6" cy="17.7" r="4.4"/>
	</g>
	<g>
		<path class="st0" d="M233.8,352c-22.5,15.6-49.7,38.3-49.7,38.3L53.6,259.9c-10.7,8.7-17.9,15-17.9,15l132.5,132.5
			c0,0,31.8-27.5,57.8-46.8c16.5-12.2,43.2-29,56-36.9l-0.3-0.3C270.1,329.9,247.6,342.5,233.8,352z"/>
	</g>
	<g>
		<path class="st0" d="M256.8,56.7l130.5,130.5c0,0-22.8,27.2-38.3,49.7c-9.6,13.8-22.2,36.2-28.5,47.9l0.3,0.3
			c7.9-12.8,24.6-39.5,36.9-56c19.3-26,46.8-57.8,46.8-57.8L271.9,38.8C271.9,38.8,265.6,46,256.8,56.7z"/>
	</g>
	<g>
		<g>
			<path class="st0" d="M139.3,177.5c-10,5.9-24.6,14.8-41.1,25.4c-24.3,15.6-50.4,37.6-50.4,37.6l137.3,137.3
				c0,0,27.2-22.8,49.7-38.3c11.9-8.2,30.1-18.7,42.3-25.5L139.3,177.5z M63.2,241.9l7.2-7.8c3.4,3.1,6.9,5.9,10.5,8.4l-6.1,8.7
				C70.8,248.5,66.9,245.3,63.2,241.9z M87.7,258.8l4.7-9.6c4,2,8.2,3.6,12.4,4.8l-3,10.2C97,262.9,92.3,261,87.7,258.8z
				 M132.2,266.7c-5.2,1-10.5,1.2-15.7,0.6l1.2-10.6c4.2,0.5,8.4,0.3,12.5-0.5L132.2,266.7z M159.9,253.6c-4.2,3.3-8.5,6-12.9,8.2
				l-4.7-9.5c3.7-1.8,7.4-4.2,11-7L159.9,253.6z M170.9,243.4l-7.8-7.2c3-3.2,5.8-6.7,8.5-10.5l8.6,6.2
				C177.3,236,174.1,239.9,170.9,243.4z"/>
		</g>
	</g>
	<g>
		<g>
			<path class="st0" d="M199.8,101.3c-10.5,16.4-19.4,31.1-25.4,41.1l136.5,137.8c6.8-12.3,17.3-30.5,25.5-42.3
				c15.6-22.5,38.3-49.7,38.3-49.7L237.5,50.8C237.5,50.8,215.4,76.9,199.8,101.3z M278.7,115.6c3,1.1,6,2.4,8.8,4l-5.3,9.2
				c-2.2-1.3-4.5-2.4-6.9-3.2c-1.7-0.6-3.3-1.1-4.9-1.5l2.8-10.3C274.9,114.3,276.8,114.9,278.7,115.6z M242.2,113.6
				c4.9-1.5,10.2-2.2,15.7-2.1l-0.3,10.6c-4.3-0.1-8.5,0.4-12.3,1.6L242.2,113.6z M228,120.8l6.3,8.5c-3.2,2.4-6.2,5.4-9.1,9
				l-8.3-6.6C220.4,127.4,224.1,123.7,228,120.8z M202.2,157.5c2-4.8,4.2-9.3,6.4-13.3l9.3,5.2c-2,3.6-4,7.8-5.9,12.3L202.2,157.5z
				 M330.2,184L312,197.6l13.7,18.2l-8.4,6.3L303.6,204l-18.2,13.7l-6.3-8.4l18.2-13.7l-13.7-18.2l8.4-6.3l13.7,18.2l18.2-13.7
				L330.2,184z M314.4,172.6l-10.6-0.8c0.3-4.2,0.1-8.5-0.7-12.7l10.4-2C314.5,162.2,314.8,167.5,314.4,172.6z M308.6,142.4
				l-9.5,4.7c-1.9-3.8-4.3-7.4-7.1-10.4l7.8-7.2C303.2,133.3,306.2,137.6,308.6,142.4z"/>
		</g>
	</g>
</g>
</svg>
